<svg width="306" height="306" viewBox="0 0 306 306" fill="none" xmlns="http://www.w3.org/2000/svg">
<g clip-path="url(#clip0_1377_804)">
<path d="M94.5508 201.959L139.533 169.308V61.2532L94.5508 36.1074V201.959Z" fill="#B1CCFF"/>
<path d="M106.84 59.9922H107.462V60.7707H106.84V59.9922ZM107.462 174.119H106.84V172.545H107.462V174.119ZM107.462 170.971H106.84V169.396H107.462V170.971ZM107.462 167.822H106.84V166.248H107.462V167.822ZM107.462 164.674H106.84V163.099H107.462V164.674ZM107.462 161.525H106.84V159.951H107.462V161.525ZM107.462 158.376H106.84V156.802H107.462V158.376ZM107.462 155.228H106.84V153.653H107.462V155.228ZM107.462 152.079H106.84V150.505H107.462V152.079ZM107.462 148.931H106.84V147.356H107.462V148.931ZM107.462 145.782H106.84V144.208H107.462V145.782ZM107.462 142.633H106.84V141.059H107.462V142.633ZM107.462 139.485H106.84V137.911H107.462V139.485ZM107.462 136.336H106.84V134.762H107.462V136.336ZM107.462 133.188H106.84V131.613H107.462V133.188ZM107.462 130.039H106.84V128.465H107.462V130.039ZM107.462 126.891H106.84V125.316H107.462V126.891ZM107.462 123.742H106.84V122.168H107.462V123.742ZM107.462 120.594H106.84V119.019H107.462V120.594ZM107.462 117.445H106.84V115.871H107.462V117.445ZM107.462 114.296H106.84V112.722H107.462V114.296ZM107.462 111.148H106.84V109.574H107.462V111.148ZM107.462 107.999H106.84V106.425H107.462V107.999ZM107.462 104.85H106.84V103.276H107.462V104.85ZM107.462 101.702H106.84V100.128H107.462V101.702ZM107.462 98.5535H106.84V96.9793H107.462V98.5535ZM107.462 95.4048H106.84V93.8303H107.462V95.4048ZM107.462 92.2561H106.84V90.682H107.462V92.2561ZM107.462 89.1078H106.84V87.5336H107.462V89.1078ZM107.462 85.9591H106.84V84.3846H107.462V85.9591ZM107.462 82.8104H106.84V81.236H107.462V82.8104ZM107.462 79.6621H106.84V78.0879H107.462V79.6621ZM107.462 76.5134H106.84V74.9392H107.462V76.5134ZM107.462 73.3648H106.84V71.7903H107.462V73.3648ZM107.462 70.2164H106.84V68.6419H107.462V70.2164ZM107.462 67.0677H106.84V65.4936H107.462V67.0677ZM107.462 63.9191H106.84V62.3449H107.462V63.9191ZM106.84 175.694H107.462V176.472H106.84V175.694ZM121.035 66.2338H121.658V67.0123H121.035V66.2338ZM121.658 166.985H121.035V165.422H121.658V166.985ZM121.658 163.861H121.035V162.298H121.658V163.861ZM121.658 160.736H121.035V159.174H121.658V160.736ZM121.658 157.612H121.035V156.05H121.658V157.612ZM121.658 154.488H121.035V152.926H121.658V154.488ZM121.658 151.364H121.035V149.802H121.658V151.364ZM121.658 148.24H121.035V146.677H121.658V148.24ZM121.658 145.115H121.035V143.553H121.658V145.115ZM121.658 141.991H121.035V140.429H121.658V141.991ZM121.658 138.867H121.035V137.305H121.658V138.867ZM121.658 135.743H121.035V134.181H121.658V135.743ZM121.658 132.619H121.035V131.057H121.658V132.619ZM121.658 129.495H121.035V127.933H121.658V129.495ZM121.658 126.371H121.035V124.809H121.658V126.371ZM121.658 123.247H121.035V121.685H121.658V123.247ZM121.658 120.122H121.035V118.56H121.658V120.122ZM121.658 116.999H121.035V115.437H121.658V116.999ZM121.658 113.874H121.035V112.312H121.658V113.874ZM121.658 110.75H121.035V109.188H121.658V110.75ZM121.658 107.626H121.035V106.064H121.658V107.626ZM121.658 104.502H121.035V102.94H121.658V104.502ZM121.658 101.378H121.035V99.8156H121.658V101.378ZM121.658 98.2536H121.035V96.6915H121.658V98.2536ZM121.658 95.1295H121.035V93.5675H121.658V95.1295ZM121.658 92.0054H121.035V90.4434H121.658V92.0054ZM121.658 88.8814H121.035V87.3193H121.658V88.8814ZM121.658 85.7573H121.035V84.1953H121.658V85.7573ZM121.658 82.6332H121.035V81.0712H121.658V82.6332ZM121.658 79.5089H121.035V77.9468H121.658V79.5089ZM121.658 76.3848H121.035V74.8228H121.658V76.3848ZM121.658 73.2607H121.035V71.6987H121.658V73.2607ZM121.658 70.1367H121.035V68.5746H121.658V70.1367ZM121.035 168.546H121.658V169.325H121.035V168.546ZM129.592 69.9965H130.215V70.7751H129.592V69.9965ZM130.215 160.644H129.592V159.094H130.215V160.644ZM130.215 157.545H129.592V155.996H130.215V157.545ZM130.215 154.446H129.592V152.897H130.215V154.446ZM130.215 151.347H129.592V149.798H130.215V151.347ZM130.215 148.248H129.592V146.699H130.215V148.248ZM130.215 145.149H129.592V143.6H130.215V145.149ZM130.215 142.05H129.592V140.501H130.215V142.05ZM130.215 138.951H129.592V137.402H130.215V138.951ZM130.215 135.853H129.592V134.303H130.215V135.853ZM130.215 132.754H129.592V131.204H130.215V132.754ZM130.215 129.655H129.592V128.105H130.215V129.655ZM130.215 126.556H129.592V125.006H130.215V126.556ZM130.215 123.457H129.592V121.907H130.215V123.457ZM130.215 120.358H129.592V118.809H130.215V120.358ZM130.215 117.259H129.592V115.71H130.215V117.259ZM130.215 114.16H129.592V112.611H130.215V114.16ZM130.215 111.061H129.592V109.512H130.215V111.061ZM130.215 107.962H129.592V106.413H130.215V107.962ZM130.215 104.863H129.592V103.314H130.215V104.863ZM130.215 101.764H129.592V100.215H130.215V101.764ZM130.215 98.6656H129.592V97.116H130.215V98.6656ZM130.215 95.5664H129.592V94.0168H130.215V95.5664ZM130.215 92.4676H129.592V90.918H130.215V92.4676ZM130.215 89.3687H129.592V87.8192H130.215V89.3687ZM130.215 86.2699H129.592V84.7203H130.215V86.2699ZM130.215 83.1711H129.592V81.6215H130.215V83.1711ZM130.215 80.0719H129.592V78.5223H130.215V80.0719ZM130.215 76.9731H129.592V75.4235H130.215V76.9731ZM130.215 73.8742H129.592V72.3246H130.215V73.8742ZM129.592 162.194H130.215V162.972H129.592V162.194Z" fill="white"/>
</g>
<g clip-path="url(#clip1_1377_804)">
<path d="M17.4414 224.297L80.4774 184.116V51.1403L17.4414 20.1953V224.297Z" fill="#23286B"/>
<path d="M41.6054 114.369L27.043 114.36V201.886L41.6054 194.592V114.369ZM58.7899 96.1667L47.3008 94.693V191.739L58.7899 185.985V96.1667ZM72.6403 58.7724L63.3447 54.7559V183.704L72.6403 179.048V58.7724Z" fill="white"/>
</g>
<g clip-path="url(#clip2_1377_804)">
<path d="M54.7734 291.312L101.591 249.168V154.836L54.7734 162.532V291.312Z" fill="#B1CCFF"/>
<path d="M95.2261 213.866C94.9715 217.059 96.9112 220.159 96.3991 223.128C93.1806 241.814 85.2329 255.319 77.0784 254.658C67.6262 253.892 61.4694 234.389 63.3267 211.092C65.1839 187.799 74.3529 169.536 83.8048 170.303C86.1265 170.492 88.2509 171.81 90.105 174.038C93.4041 178.003 93.2307 184.847 94.434 193.322C95.3071 199.471 95.8158 206.478 95.2261 213.866Z" fill="#23286B"/>
<path d="M85.2734 193.258L90.1076 174.037C95.8004 180.879 98.9617 196.295 97.5592 213.865C97.3142 216.969 96.9279 220.059 96.4014 223.127L88.4219 217.805L85.2734 193.258Z" fill="white"/>
<path d="M78.7621 233.569C83.4884 233.952 88.0724 224.82 89.0008 213.173C89.9292 201.526 86.8504 191.773 82.1241 191.391C77.3978 191.008 72.8138 200.139 71.8854 211.786C70.9571 223.434 74.0359 233.186 78.7621 233.569Z" fill="#B1CCFF"/>
</g>
<g clip-path="url(#clip3_1377_804)">
<path d="M103.978 126.685L102.508 126.298C104.123 120.141 114.609 100.889 115.055 100.073L115.179 99.8444L127.64 94.3933C128.402 92.8378 132.504 84.4356 134.154 80.4785L135.556 81.0652C133.725 85.4574 128.929 95.2172 128.881 95.3152L128.758 95.5652L116.264 101.031C115.057 103.257 105.454 121.056 103.978 126.685Z" fill="#23286B"/>
</g>
<g clip-path="url(#clip4_1377_804)">
<path d="M267.364 290.7H235.539C235.446 290.476 235.353 290.252 235.262 290.028C231.806 281.662 229.155 273.754 225.801 265.098C221.799 254.833 219.283 249.906 219.592 239.126C219.824 231.728 219.765 224.387 219.983 217.102C220.054 214.686 220.158 212.275 220.311 209.869C231.381 208.906 246.017 210.906 256.815 213.535C256.959 213.53 257.098 213.535 256.872 213.547C256.965 213.572 257.062 213.595 257.155 213.618C256.781 213.592 256.645 213.572 256.631 213.558L256.436 213.567C256.897 214.08 259.875 221.625 261.209 224.96C262.747 228.759 265.931 231.377 266.495 235.638C266.854 238.1 274.215 231.776 274.883 234.909C275.345 237.167 278.222 252.749 279.511 256.665C279.752 257.404 278.271 272.104 278.123 272.866C276.398 281.709 275.437 290.7 275.437 290.7H267.364Z" fill="#23286B"/>
<path d="M192.888 219.146C190.922 231.697 195.333 246.949 196.131 259.761C196.755 270.049 196.862 280.367 197.015 290.7H243.136C243.132 290.476 243.131 290.253 243.13 290.029C243.059 279.637 243.377 269.17 242.881 258.888C242.368 247.955 241.906 236.922 242.317 225.988C242.521 221.163 241.034 215.876 244.368 211.924C239.861 214.374 233.975 215.978 227.851 217.103C220.52 218.449 212.85 219.112 206.808 219.727C202.757 220.16 197.027 220.367 193.072 219.069C193.035 218.99 192.99 218.914 192.939 218.842C192.928 218.899 192.92 218.956 192.911 219.015C192.718 218.949 192.526 218.878 192.336 218.803C192.591 218.979 192.769 219.086 192.888 219.146Z" fill="#23286B"/>
<path d="M189.602 115.885C191.498 110.76 194.211 110.741 197.331 108.488C208.138 100.749 225.522 118.963 217.584 131.467C213.589 137.77 206.49 141.439 203.105 148.061C200.89 152.446 196.776 161.303 192.688 165.9C186.044 173.355 183.425 176.829 174.886 182.361C171.116 184.766 165.795 188.355 161.148 185.949C156.776 183.662 154.672 178.028 155.306 173.645C157.7 157.23 177.312 144.591 181.605 137.123C185.402 130.457 186.826 123.395 189.602 115.885Z" fill="#B1CCFF"/>
<path d="M219.32 90.2704C219.32 91.7474 217.057 103.438 235.826 103.438C244.942 103.438 252.332 91.7477 252.332 90.2704C252.332 88.7931 244.942 87.5957 235.826 87.5957C226.71 87.5957 219.32 88.7931 219.32 90.2704Z" fill="#23286B"/>
<path d="M266.441 229.009L191.735 201.453L188.43 121.245C189.367 108.245 200.311 98.2504 213.341 98.4966L237.361 98.9509L271.588 105.563C280.76 107.335 287.548 115.102 288.116 124.429C288.719 134.329 288.553 146.319 285.135 152.64C285.084 152.742 285.032 152.794 284.981 152.896L266.441 229.009Z" fill="#B1CCFF"/>
<path d="M191.94 190.814C189.664 197.025 185.395 223.344 188.667 231.119C190.917 233.165 192.145 233.165 192.145 233.165L193.781 242.371C193.781 242.371 234.567 244.291 241.439 243.804C251.616 243.082 259.096 243.834 268.47 240.087C272.12 234.392 270.959 230.165 270.688 225.186C270.418 220.926 279.676 208.22 279.893 203.909C280.164 197.493 267.332 197.948 268.958 191.788C260.451 193.482 251.781 192.661 243.166 193.225C230.541 194.046 217.916 196.459 205.4 197.896C200.848 198.46 195.245 192.97 191.94 190.814Z" fill="#B1CCFF"/>
<path d="M249.418 74.6289L249.124 101.342L231.279 100.425L227.762 113.22L225.587 116.695L224.214 109.637L223.341 99.2586L221.305 98.9812L221.576 74.3203L249.418 74.6289Z" fill="#FEBEB6"/>
<path d="M221.049 41.5274C213.445 41.6043 210.611 44.254 210.549 52.0305C210.502 57.8125 210.346 63.701 210.637 69.4472C214.597 69.6558 218.749 69.649 222.711 69.4472C223.191 60.4372 222.625 51.292 222.843 42.2437C222.686 42.802 221.31 41.0071 221.049 41.5274Z" fill="#23286B"/>
<path d="M249.494 71.3869L239.697 69.393L235.195 80.3241L232.413 88.0253L215.996 91.2715C212.716 91.8665 210.059 88.6215 211.29 85.5191L211.489 84.4131L211.909 83.2299L210.869 82.2127L210.836 82.0464C210.804 81.2561 211.387 80.5984 212.166 80.0176L211.885 79.7643L210.736 78.7869L211.436 75.0973L208.058 73.7561C207.932 73.7061 207.818 73.6296 207.725 73.5316C207.631 73.4337 207.56 73.3166 207.516 73.1886C207.472 73.0605 207.456 72.9244 207.47 72.7896C207.483 72.6548 207.525 72.5246 207.594 72.4078L212.416 62.9679L212.398 60.0229L218.972 44.6553L223.194 42.3386L234.293 37.9395L252.238 45.0623L257.017 54.6022C257.977 56.5175 258.521 58.614 258.614 60.7542C258.707 62.8944 258.346 65.0302 257.556 67.0214C256.28 70.2377 252.884 72.0766 249.494 71.3869Z" fill="#FEBEB6"/>
<path d="M213.044 74.6335C213.419 74.441 213.65 74.2095 213.596 74.049C213.523 73.8343 212.97 73.8272 212.36 74.033C212.046 74.1389 211.78 74.2802 211.604 74.4218L213.044 74.6335ZM212.418 62.3477C212.418 65.4899 210.458 68.0368 208.043 68.0368C205.631 68.0368 203.671 65.4958 203.668 62.3563V62.3477C203.668 61.246 204.872 60.4448 205.339 59.8693C206.203 58.8034 206.783 58.5102 208.352 58.5102C209.098 58.5102 209.496 56.9036 210.111 57.3326C211.485 58.2923 212.418 60.177 212.418 62.3477ZM214.503 82.7091C214.501 83.1415 213.238 83.8661 212.875 83.8127C212.169 83.7087 211.221 82.5665 211.209 82.565L211.428 82.5144C211.752 82.5073 212.397 82.5375 212.507 82.5286C213.091 82.4817 213.689 82.4773 214.272 82.5452C214.419 82.5622 214.503 82.5702 214.503 82.5702L214.503 82.7091ZM217.506 79.6298L217.323 79.8091C216.989 80.1338 215.524 80.4662 215.106 80.6091C214.978 80.6529 212.502 80.1502 212.362 80.0853C211.263 79.5755 211.186 79.4148 210.666 78.8525L210.776 78.4275C211.241 78.7074 211.785 78.7617 212.297 78.5871L213.562 78.0609C213.743 78.0722 213.92 78.112 214.089 78.1788L217.506 79.6298Z" fill="#23286B"/>
<path d="M219.479 44.7724C218.584 44.5579 218.036 45.7103 217.359 46.184C216.246 46.9623 215.206 47.3684 214.323 48.3819C213.022 49.8764 212.004 51.2972 211.746 53.4106C211.563 54.9067 211.869 57.3311 211.869 58.8398C211.869 60.9525 212.672 61.0963 213.679 62.7147C214.749 61.5883 215.387 59.9986 216.389 58.6871C217.419 57.3388 218.52 55.8939 219.224 54.3126C219.764 53.1007 222.829 44.8317 220.381 45.0304" fill="#FEBEB6"/>
<path d="M214.547 63.2083C214.16 62.8957 213.507 62.4251 213.212 62.2628C212.643 61.9502 212.281 62.0952 211.66 62.8821L210.691 62.1174C211.09 61.6119 212.15 60.2689 213.807 61.1808C214.224 61.4104 214.958 61.9532 215.322 62.248L214.547 63.2083Z" fill="#23286B"/>
<path d="M210.115 57.3319C209.64 60.2115 207.248 62.4026 204.369 62.4026C204.133 62.4026 203.9 62.3881 203.672 62.356V62.3473C203.672 59.2051 205.632 56.6582 208.047 56.6582C208.794 56.6579 209.5 56.9029 210.115 57.3319Z" fill="#B1CCFF"/>
<path d="M285.62 218.434C284.627 237.257 275.232 258.411 274.624 277.952C271.423 275.192 268.83 271.494 264.801 269.562C261.821 268.126 259.061 268.513 256.578 265.808C258.565 261.282 257.847 256.59 259.172 252.008C260.441 247.537 265.509 244.731 266.944 240.26C269.317 232.753 272.106 220.752 271.72 212.803C271.222 203.695 286.062 210.099 285.62 218.434Z" fill="#FEBEB6"/>
<path d="M267.367 290.699C260.812 288.117 254.413 286.695 247.471 284.077C246.941 273.753 247.757 262.275 249.235 251.053C250.366 242.473 254.371 243.836 260.605 251.897C263.942 256.246 268.151 259.499 272.069 262.938C273.273 263.995 274.448 265.066 275.561 266.194C280.637 271.302 279.652 272.012 277.944 277.387C277.048 280.209 275.941 286.319 275.439 290.699H267.367ZM271.465 218.443C275.167 219.78 276.327 220.944 278.205 223.112C280.702 225.992 282.006 228.838 283.507 233.552C284.722 229.449 286.696 224.236 287.714 220.295C282.951 218.564 275.961 215.781 271.465 218.443Z" fill="#23286B"/>
<path d="M214.141 48.3951C221.843 43.2728 221.395 52.7902 222.505 55.7491C223.987 59.6992 226.96 63.1664 230.133 64.6094C233.187 65.9988 235.109 68.8663 235.164 72.1579C237.467 70.501 237.904 64.1373 238.713 61.3175C239.878 57.2501 239.149 53.6845 237.093 49.8899C234.693 45.4593 232.407 43.8388 227.508 43.425C223.667 43.1006 221.525 42.4013 218.128 44.6113C218.446 44.6211 216.492 46.2475 214.141 48.3951Z" fill="#EAA097"/>
<path d="M214.016 46.6044C217.95 45.6233 226.909 44.4725 228.613 47.9024C230.795 52.296 226.668 53.9359 232.136 57.7904C236.965 61.194 236.581 60.5123 236.939 67.5867C237.201 72.7589 243.496 78.9535 246.664 82.9623C252.459 76.2637 267.559 80.4067 269.995 69.0229C264.704 67.5747 265.509 58.3749 262.437 54.7907C260.054 52.0108 258.576 51.921 257.223 48.527C256.121 45.7625 257.592 43.9436 254.918 41.5272C251.914 38.8134 248.727 40.1907 244.973 39.7901C240.599 39.3238 237.428 36.9895 233.403 36.2776C226.099 34.9857 219.747 41.305 214.016 46.6044Z" fill="#23286B"/>
<path d="M209.605 68.4958L212.508 62.7937C212.613 62.5866 212.923 62.6391 212.954 62.8696L213.258 65.132L212.563 67.9736L209.605 68.4958Z" fill="#FEBEB6"/>
<path d="M221.106 91.6245C220.965 91.7908 221.235 94.1412 221.4 94.5766C222.611 97.7793 231.077 96.5078 233.615 93.973C235.956 91.6353 237.19 88.3055 237.226 85.2305C237.254 82.8654 237.199 80.1484 237.55 76.1992C233.832 80.4996 229.83 84.5991 225.12 87.8095C224.327 88.3502 223.531 88.8915 222.784 89.4948C222.425 89.784 221.27 91.431 221.106 91.6245Z" fill="#EAA097"/>
<path d="M231.418 100.594C232.016 105.9 230.833 106.925 232.178 110.124C232.864 111.758 236.451 113.268 238.759 113.313C241.112 113.359 241.247 113.7 243.182 113.519C247.215 113.141 251.101 112.696 257.374 104.363C255.754 104.302 248.232 104.782 246.63 104.962C244.419 105.211 242.279 105.025 240.073 104.784C239.542 104.726 233.999 103.641 235.366 102.511L231.418 100.594Z" fill="#23286B"/>
<path d="M231.273 100.443C238.742 100.428 245.617 96.1352 252.232 89.9609L258.506 103.025L240.2 118.044L231.273 100.443Z" fill="#B1CCFF"/>
<path d="M220.727 107.655C218.828 109.787 216.778 107.81 216.218 107.14C215.021 105.71 215.672 102.619 215.917 100.968C216.084 99.846 218.827 102.661 219.6 101.786C220.368 100.917 221.304 99.7148 222.23 99.3223C222.515 99.3217 223.3 99.3309 223.3 99.3309C223.3 99.3309 222.994 105.108 220.727 107.655Z" fill="#23286B"/>
<path d="M223.338 99.26C223.338 99.26 215.928 113.518 215.825 113.107C215.722 112.695 214.797 98.6023 214.797 98.6023C214.797 98.6023 220.226 91.6606 219.939 91.813C218.303 92.6817 221.901 99.7229 223.338 99.26Z" fill="#B1CCFF"/>
<path d="M210.902 75.099L215.735 75.154C218.008 75.1831 220.222 75.8834 222.099 77.167C225.961 79.809 231.277 78.1838 233.003 73.8334L237.183 63.2949L242.125 65.2561L233.521 86.943C232.968 88.3363 232.064 89.5624 230.896 90.5017C229.728 91.441 228.336 92.0614 226.857 92.3022L217.131 93.8856C213.566 94.4658 210.339 91.6952 210.371 88.0829L210.374 87.7358C210.378 87.3543 210.452 86.9766 210.593 86.622L211.544 84.2242C213.951 85.1799 216.682 84.0464 217.706 81.6664L217.749 81.5217C218.245 79.8472 217.092 78.1351 215.354 77.965L211.759 77.6135C211.578 77.5958 211.403 77.5389 211.245 77.4469C211.088 77.355 210.952 77.23 210.848 77.0806C210.743 76.9312 210.672 76.7609 210.64 76.5815C210.607 76.4021 210.614 76.2178 210.659 76.0412L210.902 75.099Z" fill="#23286B"/>
<path d="M245.332 72.07C245.329 72.0762 245.329 72.0823 245.326 72.0885C244.622 74.8752 241.901 76.662 239.062 76.196L237.531 77.1623L238.482 71.5299L240.284 67.373L245.332 72.07Z" fill="#FEBEB6"/>
<path d="M246.243 68.398L245.759 70.3484L245.33 72.0704C245.327 72.0766 245.327 72.0828 245.324 72.0889C245.25 72.0858 245.169 72.0828 245.086 72.0828C244.13 72.0735 243.102 72.2864 242.106 72.2309C241.229 72.1784 239.69 72.0087 238.48 71.5304L239.202 67.1142L239.665 64.2874L242.859 64.1948C245.101 64.13 246.786 66.2224 246.243 68.398Z" fill="#EAA097"/>
<path d="M235.281 141.828L238.74 142.527C239.776 142.737 240.986 142.971 242.293 143.147C243.597 143.328 245.002 143.441 246.402 143.47C247.811 143.51 249.211 143.446 250.532 143.362C251.851 143.277 253.084 143.184 254.144 143.134C254.674 143.108 255.161 143.099 255.592 143.096C256.024 143.097 256.401 143.1 256.711 143.112C257.021 143.118 257.264 143.137 257.43 143.145L257.684 143.159L257.674 143.344C257.674 143.344 257.584 143.375 257.417 143.424C257.251 143.468 257.008 143.545 256.703 143.624C256.397 143.702 256.028 143.817 255.609 143.914C255.189 144.024 254.718 144.154 254.204 144.276C253.175 144.526 251.973 144.797 250.644 145.005C250.305 145.061 249.966 145.107 249.625 145.146C249.279 145.191 248.923 145.226 248.565 145.253C247.863 145.313 247.056 145.327 246.377 145.321L245.805 145.295C245.621 145.288 245.437 145.277 245.253 145.262C244.885 145.243 244.521 145.195 244.16 145.153C243.802 145.112 243.446 145.058 243.091 144.991C242.741 144.928 242.396 144.866 242.061 144.782C240.716 144.477 239.51 144.061 238.505 143.651C238.002 143.446 237.549 143.233 237.15 143.042C236.748 142.861 236.407 142.671 236.124 142.522C235.84 142.377 235.622 142.236 235.471 142.152C235.393 142.107 235.317 142.059 235.242 142.01L235.281 141.828Z" fill="#23286B"/>
<path d="M287.625 122.98C288.887 126.632 289.595 138.316 289.541 142.806C289.39 150.678 291.059 171.501 290.324 179.152C289.509 187.73 298.306 204.043 287.096 222.559C282.755 220.63 274.952 217.013 270.186 218.927C270.186 218.927 272.987 206.835 271.301 202.68C269.665 187.335 267.934 168.077 268.642 163.194C269.73 155.874 258.508 146.268 258.831 138.848C259.517 124.071 283.261 110.443 287.625 122.98Z" fill="#B1CCFF"/>
<path d="M227.759 113.22L225.275 122.249L224.211 109.637C225.429 112.46 226.608 113.51 227.759 113.22Z" fill="#23286B"/>
<path d="M123.495 121.51C118.124 121.234 112.416 121.646 106.626 121.379C105.481 121.326 103.338 121.134 102.338 121.8C100.404 123.087 102.666 124.605 104.095 125.063C106.595 125.863 110.7 125.637 113.342 125.76C115.804 125.875 117.355 126.294 119.783 126.057C121.427 125.897 121.883 126.24 122.693 124.547C123.305 123.268 123.478 122.871 123.495 121.51Z" fill="#FEBEB6"/>
<path d="M138.692 136.689C136.856 139.24 134.111 140.567 130.858 140.175C126.891 139.698 121.337 139.775 117.953 137.501C117.495 134.287 114.655 131.113 113.701 127.971C113.176 126.242 118.379 126.823 119.974 125.553C121.08 124.674 122.217 121.362 123.574 121.181C126.55 120.786 127.223 121.718 130.241 122.18C132.526 122.529 132.363 123.627 133.278 125.559C134.13 127.355 135.228 128.465 136.651 129.735C137.682 130.655 138.931 132.601 140.244 132.97C140.269 132.791 139.887 135.028 138.692 136.689Z" fill="#23286B"/>
<path d="M113.501 127.963C113.507 127.311 113.991 126.938 114.468 126.909C115.111 126.869 115.861 127.111 116.492 127.296C117.781 127.675 119.076 128.005 120.372 128.472C122.23 129.141 126.803 129.567 125.728 132.682C124.934 134.982 120.384 132.647 118.599 132.102C117.371 131.727 116.071 131.447 114.806 131.167C113.821 130.95 113.48 130.118 113.501 127.963Z" fill="#FEBEB6"/>
<path d="M114.614 132.294C114.62 131.668 115.085 131.31 115.543 131.282C116.16 131.243 116.881 131.475 117.487 131.653C118.725 132.017 119.969 132.335 121.213 132.783C122.998 133.425 127.389 133.834 126.357 136.826C125.594 139.035 121.225 136.792 119.51 136.269C118.331 135.909 117.082 135.64 115.867 135.372C114.921 135.163 114.594 134.364 114.614 132.294Z" fill="#FEBEB6"/>
<path d="M115.351 136.758C115.286 136.187 115.682 135.805 116.109 135.726C116.684 135.619 117.387 135.748 117.976 135.84C119.18 136.028 120.383 136.173 121.603 136.437C123.351 136.817 127.522 136.679 126.89 139.532C126.424 141.638 122.067 140.097 120.398 139.819C119.249 139.627 118.047 139.527 116.875 139.423C115.963 139.342 115.565 138.651 115.351 136.758Z" fill="#FEBEB6"/>
<path d="M120.069 121.397C120.124 121.996 119.899 123.241 119.795 123.883C119.663 124.688 119.311 125.261 119.031 126.036C119.56 125.843 120.069 125.948 120.626 125.889C121.442 125.802 121.323 125.601 121.549 124.792C121.861 123.681 122.433 122.409 122.405 121.268C122.009 121.431 120.548 121.375 120.069 121.397Z" fill="#23286B"/>
<path d="M119.156 125.7C120.573 123.929 121.95 121.21 122.473 120.132C122.634 119.796 122.915 119.532 123.261 119.393C123.343 119.36 123.424 119.332 123.494 119.316C124.809 119.006 126.398 119.335 127.711 119.147C129.246 118.927 130.77 118.643 132.266 118.262C134.402 117.717 134.712 117.618 136.483 118.982C137.773 119.975 138.27 120.995 139.136 122.531C140.787 125.461 142.597 128.55 144.589 131.295C146.023 133.271 151.911 140.789 153.578 142.946C155.436 145.352 157.408 147.342 159.26 149.332C159.713 149.818 158.924 150.305 159.359 150.797C160.716 152.333 163.206 153.929 164.257 155.769C161.378 157.569 158.775 159.256 155.536 160.486C152.782 161.532 150.638 163.819 147.819 164.64C146.941 162.04 146.521 160.566 145.481 158.036C145.361 157.744 144.009 156.527 143.891 156.236C142.953 153.91 142.07 151.61 140.826 149.354C139.419 146.801 137.903 144.357 136.15 142.095C134.936 140.527 134.527 139.775 134.527 139.775C134.527 139.775 138.384 137.924 138.288 134.358C135.206 134.318 133.72 133.643 132.392 130.625C131.935 129.585 131.317 128.337 131.122 127.246C130.892 125.956 131.268 124.803 131.274 123.551C129.381 124.092 125.405 123.311 125.405 123.311C125.405 123.311 125.101 123.684 124.975 123.872C123.528 126.021 122.32 128.451 119.305 126.618C119.202 126.438 118.729 126.234 119.156 125.7Z" fill="#FEBEB6"/>
<path d="M143.92 156.219C149.22 159.785 155.242 152.704 159.262 149.686C157.463 155.464 159.112 164.677 152.713 167.789C149.633 169.287 149.51 167.069 148.015 163.695C147.927 163.496 146.401 162.414 146.313 162.215C144.971 159.156 143.719 156.083 143.92 156.219Z" fill="#23286B"/>
<path d="M159.271 149.251C155.757 154.782 152.305 159.665 146.23 162.236C148.15 167.721 153.051 176.753 156.177 181.617C158.954 185.937 166.866 189.891 170.472 183.88C171.783 181.695 172.704 177.438 173.074 174.927C173.582 171.489 173.301 167.916 172.358 164.576C170.82 159.129 170.061 158.78 164.096 153.842C163.484 153.336 159.245 149.544 159.271 149.251ZM223.497 63.6423H226.26V63.4043C226.26 63.2406 226.195 63.0836 226.079 62.9679C225.963 62.8521 225.806 62.7871 225.643 62.7871H223.497V63.6423ZM223.497 65.8633H225.643C225.806 65.8633 225.963 65.7982 226.079 65.6825C226.195 65.5668 226.26 65.4098 226.26 65.2461V65.0081H223.497V65.8633Z" fill="#B1CCFF"/>
<path d="M242.565 63.9381L225.79 65.4635C225.747 65.4674 225.704 65.4624 225.663 65.4487C225.623 65.4351 225.585 65.4131 225.553 65.3841C225.522 65.3552 225.497 65.32 225.479 65.2807C225.462 65.2415 225.453 65.1991 225.453 65.1562V63.4687C225.453 63.3869 225.485 63.3084 225.543 63.2505C225.601 63.1926 225.68 63.1601 225.762 63.1601H242.565L242.565 63.9381ZM224.809 64.7926C224.809 67.9348 222.263 70.4818 219.121 70.4818C215.98 70.4818 213.434 67.9348 213.434 64.7926C213.434 64.5652 213.448 64.3405 213.474 64.1186C213.627 62.8244 214.831 62.2809 215.701 61.4029C216.609 60.4876 217.208 59.2624 218.564 59.1297C218.749 59.1121 218.935 59.1033 219.121 59.1035C222.263 59.1035 224.809 61.6504 224.809 64.7926Z" fill="#23286B"/>
<path d="M218.562 59.1289C218.501 61.915 216.483 64.1527 213.995 64.1527C213.817 64.1527 213.645 64.1409 213.473 64.1175C213.785 61.4746 215.905 59.3884 218.562 59.1289Z" fill="#B1CCFF"/>
</g>
<defs>
<clipPath id="clip0_1377_804">
<rect width="44.982" height="165.852" fill="white" transform="translate(94.5508 36.1074)"/>
</clipPath>
<clipPath id="clip1_1377_804">
<rect width="63.036" height="204.102" fill="white" transform="translate(17.4414 20.1953)"/>
</clipPath>
<clipPath id="clip2_1377_804">
<rect width="46.818" height="136.476" fill="white" transform="translate(54.7734 154.836)"/>
</clipPath>
<clipPath id="clip3_1377_804">
<rect width="33.048" height="46.206" fill="white" transform="translate(102.508 80.4785)"/>
</clipPath>
<clipPath id="clip4_1377_804">
<rect width="191.25" height="254.592" fill="white" transform="translate(101.59 36.1074)"/>
</clipPath>
</defs>
</svg>
