<svg width="269" height="220" viewBox="0 0 269 220" fill="none" xmlns="http://www.w3.org/2000/svg">
<g clip-path="url(#clip0_327_11363)">
<path d="M35.7773 18.0227H247.777V179.873H35.7773V18.0227Z" fill="#3366FF"/>
<path d="M42.4443 24.1832H241.111V173.713H42.4443V24.1832Z" fill="white"/>
<path d="M37.9034 19.9941L35.7783 181.844H249.901V21.8021L247.777 18.0227L37.9034 19.9941ZM243.234 175.684H44.5675V26.1541H243.234V175.684Z" fill="#000066"/>
<path d="M35.7783 18.0227V179.873H247.776V18.0227H35.7783ZM241.109 173.713H42.4424V24.1829H241.109V173.713Z" fill="#3366FF"/>
</g>
<g clip-path="url(#clip1_327_11363)">
<path d="M187.493 73.4409L181.521 42.5363C185.838 41.7022 190.282 41.7816 194.567 42.7693C211.394 46.6491 222.049 63.6873 218.168 80.5134C214.288 97.3392 197.248 107.992 180.42 104.113C163.593 100.233 152.938 83.1943 156.819 66.3684L187.493 73.4409Z" fill="#3366FF"/>
<path d="M184.342 69.9852L156.853 63.561C158.085 58.2874 160.809 53.4796 164.699 49.7112C168.59 45.9431 173.482 43.3734 178.793 42.3087L184.342 69.9852Z" fill="#000066"/>
</g>
<g clip-path="url(#clip2_327_11363)">
<path d="M149.737 118.94C149.758 119.122 150.897 130.193 152.689 135.576C157.041 134.931 175.836 131.306 175.836 131.306L149.97 117.806" fill="#000066"/>
<path d="M177.27 131.142L153.345 134.002C151.38 129.598 150.274 123.838 149.563 117.454L173.489 114.594C174.116 120.863 175.288 126.485 177.27 131.142Z" fill="#3366FF"/>
</g>
<g clip-path="url(#clip3_327_11363)">
<path d="M122.199 157.581C122.44 163.063 113.585 191.32 105.152 199.017C96.719 206.714 93.9782 150.517 93.9782 150.517C93.9782 150.517 104.625 133.12 105.468 132.382C106.311 131.644 112.531 128.902 112.531 128.902C112.531 128.902 116.009 136.388 116.115 136.915C116.22 137.443 122.199 157.581 122.199 157.581L122.199 157.581ZM35.2979 213.286C35.2979 213.286 52.3621 226.641 57.112 229.453C61.8618 232.265 67.6246 179.687 67.6246 179.687L39.0348 208.084L35.2979 213.286Z" fill="#3366FF"/>
<path d="M123.7 252.053H94.724L82.9436 216.098L78.5498 252.053H51.3523C50.5953 242.328 48.4428 212.527 49.4935 200.494C50.7731 185.86 58.2082 165.63 58.2082 165.63L58.9113 163.24L93.4875 165.207L99.3898 165.63C99.3898 165.63 100.589 168.068 101.787 171.356C102.113 172.25 102.442 173.207 102.744 174.196C103.309 176.036 103.789 177.984 104.029 179.827C109.231 191.225 120.984 240.515 123.7 252.053Z" fill="#000066"/>
<path d="M102.743 174.196C96.6281 175.292 89.527 176.206 80.9146 176.206C76.1329 176.206 70.8852 175.926 65.0771 175.236L65.4274 172.294C81.0627 174.147 92.5657 172.983 101.787 171.356C102.113 172.25 102.442 173.207 102.743 174.196ZM195.491 74.8791C195.491 74.8791 193.769 82.8922 193.277 84.0872C192.785 85.2822 188.287 72.8407 188.287 72.8407L190.958 71.3647L195.491 74.8791ZM91.2368 92.6675L96.2967 91.8942C96.2967 91.8942 110.492 117.48 110.352 118.886C110.211 120.291 102.114 127.883 101.454 128.937C100.794 129.992 97.5254 135.545 92.5538 134.631C87.5822 133.717 74.7218 124.579 74.7218 124.579L69.8728 97.1659L85.1227 95.3382L91.2368 92.6672V92.6675Z" fill="white"/>
<path d="M150.69 109.959C150.69 109.959 165.799 100.535 169.91 97.7938C174.022 95.0525 181.717 88.7264 181.717 88.7264L183.72 72.6474L190.572 65.9521H199.11L202.689 69.1831C202.984 69.449 202.824 69.9397 202.429 69.9774C201.602 70.0566 200.496 70.1035 200.059 69.8532C199.321 69.4315 197.674 68.4039 197.674 68.4039L192.917 68.8662L190.572 73.754L194.155 78.1824L193.998 86.9909C193.966 88.7889 192.804 90.3714 191.098 90.9402C189.393 91.509 174.022 109.602 170.332 112.871C165.902 116.799 161.473 120.728 157.045 124.658C156.192 125.416 155.137 125.909 154.009 126.079C152.88 126.249 151.727 126.088 150.688 125.615L144.084 122.611L150.69 109.958V109.959Z" fill="white"/>
<path d="M192.504 67.9907C192.715 68.061 196.381 68.5298 196.381 68.5298L200.445 73.7544V80.1651C200.445 80.5448 199.988 80.7406 199.716 80.4761C199.036 79.8151 198.126 78.7907 198.126 78.0421C198.126 76.8471 197.775 74.5628 197.775 74.5628L194.401 71.4347L190.536 70.521L192.504 67.9907Z" fill="white"/>
<path d="M198.829 74.5627L197.569 80.7748C197.478 81.2221 196.906 81.3636 196.622 81.0071C196.057 80.2995 195.387 79.2818 195.491 78.5341C195.667 77.2688 195.491 75.9334 195.491 75.9334L192.645 73.3327L189.904 72.0674L191.21 69.6547L195.491 71.0833L198.829 74.5627Z" fill="white"/>
<path d="M205.621 72.4455L207.784 70.9005L207.708 70.3955L205.196 69.6669C205.11 69.6418 205.019 69.6357 204.93 69.6492L176.486 73.9016L176.92 76.8054L205.35 72.5549C205.448 72.5403 205.541 72.5028 205.621 72.4455Z" fill="#000066"/>
<path d="M181.532 72.7597L182.079 76.4209L174.257 77.5903C173.971 77.6329 173.681 77.5603 173.449 77.3887C173.217 77.217 173.062 76.9602 173.02 76.6747L172.794 75.1664C172.752 74.8809 172.824 74.5902 172.996 74.3581C173.167 74.126 173.424 73.9716 173.71 73.9288L181.532 72.7597Z" fill="#000066"/>
<path d="M207.045 71.3929L207.996 71.2506L208.207 69.946L206.858 70.1475L207.045 71.3929Z" fill="#3366FF"/>
<path d="M207.67 71.2994L207.996 71.2506L208.207 69.946L207.874 69.9956L207.67 71.2994Z" fill="#000066"/>
<path d="M186.461 77.7663L187.99 72.542L191.668 67.6968C191.981 67.2853 192.613 67.3503 192.842 67.8137C193.227 68.5949 193.616 69.8219 193.313 71.2761C192.786 73.8073 191.89 74.2942 191.89 74.2942L191.573 80.3441L186.461 77.7663H186.461Z" fill="white"/>
<path d="M74.0479 120.766C80.8012 123.42 89.8667 127.953 93.24 131.96C97.4565 126.688 109.684 118.569 109.684 118.569L112.869 126.502C113.955 129.206 113.533 132.306 111.693 134.565C110.59 135.919 109.057 137.322 106.965 138.391C107.049 143.874 105.046 151.044 102.095 156.526C101.252 161.482 99.6176 166.806 99.6176 166.806C99.6176 166.806 91.0265 169.284 83.9636 168.862C76.901 168.44 66.8867 164.434 66.8867 164.434L74.0479 120.766V120.766Z" fill="#000066"/>
<path d="M95.1635 94.2289C95.1635 94.2289 118.644 140.465 122.158 158.038C122.861 149.603 114.147 117.269 114.147 117.269L105.468 89.5745L95.0671 89.4338L95.1638 94.2287L95.1635 94.2289ZM74.2301 95.5492C74.2301 95.5492 78.3251 121.625 78.7278 125.563C79.6618 134.697 77.0681 158.666 75.6465 170.586C75.1214 174.998 72.8944 179.031 69.44 181.825C63.3389 186.759 53.9835 194.409 52.3044 196.275C49.7746 199.087 35.2979 213.286 35.2979 213.286L53.1479 123.876L47.9476 102.929C47.9476 102.929 65.7976 96.9622 74.2306 95.5489L74.2301 95.5492Z" fill="#3366FF"/>
<path d="M21.4535 155.472C21.2956 155.63 20.3767 157.94 19.4956 160.216C18.962 161.592 18.806 163.086 19.0435 164.542C19.281 165.999 19.9035 167.366 20.8466 168.501C24.8788 173.355 31.988 181.724 36.7384 186.26C43.6957 192.902 46.5496 195.906 46.8365 197.388C47.469 200.657 51.9708 209.034 52.3924 209.034C52.814 209.034 60.1403 194.905 60.1403 194.905V192.269C60.1403 192.269 55.5722 191.32 53.7803 190.793C51.9883 190.266 40.217 172.447 37.8979 168.441C35.5787 164.434 33.2598 159.795 33.2598 159.795L21.4535 155.472Z" fill="white"/>
<path d="M60.1405 190.582C60.1405 190.582 59.754 195.995 56.451 201.477C53.6431 206.138 50.5479 208.085 50.5479 208.085C50.5479 208.085 52.7967 213.849 52.9373 214.13C53.078 214.411 64.4626 199.791 64.4626 199.791L64.7436 192.41L62.9163 189.669C62.7757 189.458 60.1405 190.582 60.1405 190.582Z" fill="#000066"/>
<path d="M49.5815 102.444L45.0334 102.949C44.4715 103.011 43.9321 103.204 43.4586 103.513C42.9852 103.823 42.5909 104.239 42.3077 104.728L25.9813 132.944C25.2993 134.106 25.0044 135.454 25.1392 136.795L25.4587 139.973L21.687 143.021C20.8945 143.661 20.3325 144.543 20.0862 145.532C19.8399 146.52 19.9228 147.563 20.3223 148.5L21.1366 150.411L18.5979 159.385C18.3977 160.092 19.0569 160.74 19.7598 160.526C20.9036 160.179 22.7053 160.001 25.4593 160.533C31.4677 161.693 35.2979 163.731 35.2979 163.731L38.8468 156.421L43.9095 152.815C44.503 152.392 44.9971 151.845 45.3571 151.211C45.7172 150.578 45.9345 149.873 45.994 149.147L46.3502 144.795C46.4062 144.109 46.6899 143.461 47.1562 142.955L59.508 129.535L49.5815 102.444Z" fill="#3366FF"/>
<path d="M97.4694 45.8855C99.8653 45.9184 104.437 51.9044 106.598 64.7859C109.32 81.0085 105.521 89.2541 101.441 91.9575C97.36 94.6609 92.3598 94.8638 89.5892 91.4844C86.8185 88.1049 87.8998 60.53 90.9407 55.6637C93.9813 50.7975 92.8835 45.8224 97.4694 45.8855Z" fill="#000066"/>
<path d="M95.1625 80.4011C95.1625 80.4011 93.5973 83.4736 93.5488 86.496C93.5432 86.8487 93.3764 87.1804 93.2929 87.5172C91.6335 94.2318 89.7612 104.336 89.7612 104.336C89.7612 104.336 82.3799 105.107 79.2712 103.21C79.1257 103.124 78.991 103.029 78.8671 102.93C76.5369 101.062 79.7157 84.2488 80.8687 78.5715C81.1057 77.4048 81.2566 76.707 81.2566 76.707L83.1423 77.2836L92.9939 80.296L95.1625 80.4011Z" fill="white"/>
<path d="M95.1623 80.4012C95.1623 80.4012 94.3218 83.4378 93.5487 86.4961C92.525 87.5361 91.3585 88.9346 91.1673 90.2064C90.8144 92.5263 89.1288 96.3393 83.8577 98.4312C81.4676 99.3797 75.2585 98.0799 73.4568 97.5879C70.2837 96.7213 70.6457 101.173 70.928 99.7666C72.0137 94.3567 78.9397 79.6632 78.9397 79.6632L80.8685 78.5719L83.1422 77.2839L92.9937 80.2964L95.1623 80.4012Z" fill="#3366FF"/>
<path d="M103.845 70.4652C103.923 71.1232 104.244 71.7502 104.503 72.1649C104.594 72.3124 104.65 72.4794 104.664 72.6523C104.678 72.8252 104.652 72.9991 104.586 73.1597C104.573 73.1907 104.558 73.2219 104.542 73.2529L104.058 74.165L104.05 74.183L104.485 75.2557C104.698 75.7324 104.496 76.1158 104.154 76.5563C104.125 76.5951 104.094 76.6342 104.063 76.673H104.06C104.05 76.6886 104.037 76.704 104.024 76.7196C103.941 76.8207 103.695 77.0979 103.651 77.1497L103.643 77.1575C103.643 77.1575 103.661 77.2068 103.69 77.2949C103.892 77.8855 104.63 80.2537 103.982 81.5489C103.239 83.036 101.009 84.3884 97.8307 83.4739C95.0048 82.6577 85.4856 80.0282 81.8723 79.0307L80.4658 78.6446C80.4658 78.6446 80.7869 76.9503 81.3206 74.463V74.4603C82.5431 68.7812 84.8822 58.9725 87.089 55.7313C90.2646 51.068 96.0072 47.9588 96.0072 47.9588C97.9578 48.8372 99.3177 50.0314 100.234 51.3555V51.3582C101.509 53.195 101.926 55.2781 101.887 57.0839C101.82 60.1928 101.48 63.0298 101.48 63.0298L104.847 66.9912C105.1 67.2502 105.256 67.5872 105.291 67.9469C105.327 68.3066 105.239 68.6676 105.042 68.9706C104.708 69.4809 104.28 70.0613 103.845 70.4655L103.845 70.4652Z" fill="white"/>
<path d="M104.586 73.1597C104.575 73.1907 104.56 73.2219 104.546 73.2529L104.107 74.165C103.763 74.0225 103.197 74.0769 102.202 74.3938C101.69 74.5573 101.194 74.7184 100.799 74.8744C100.196 75.1121 99.5318 75.0507 98.9731 74.7071L98.3791 74.3418C98.2851 74.2841 98.3277 74.1257 98.4349 74.1335L99.9297 74.3932C100.044 74.4016 100.158 74.3754 100.259 74.3178L102.832 72.7857C103.084 72.6421 103.392 72.7005 103.587 72.929L103.749 73.1201C103.897 73.2931 104.124 73.3515 104.325 73.268L104.586 73.1597ZM104.276 76.0872C104.248 76.1277 104.262 76.2053 104.232 76.2457C104.221 76.2618 104.203 76.2909 104.19 76.3071C104.108 76.4122 103.824 76.6504 103.781 76.7043C102.953 76.7177 101.943 76.6827 101.192 76.327C102.203 76.5345 103.505 76.2732 104.276 76.0872H104.276Z" fill="#000066"/>
<path d="M97.8307 83.4737C95.0048 82.6576 85.3639 80.5192 81.7505 79.5218C81.4397 78.2289 81.3904 76.1701 81.3203 74.4629V74.4602C82.5428 68.781 84.8819 58.9723 87.0888 55.7312C90.2643 51.0678 96.0069 47.9587 96.0069 47.9587C97.9576 48.8371 99.3174 50.0313 100.234 51.3553V51.358C100.467 55.3273 99.305 58.0926 97.6758 59.9375C96.0489 61.7794 93.5064 65.7196 91.1595 69.3701C88.8102 73.0205 89.4871 81.4144 97.8304 83.4737H97.8307Z" fill="#3366FF"/>
<path d="M101.441 69.781H102.326C102.326 69.781 102.872 68.9589 102.393 68.9589C101.914 68.9589 101.441 69.781 101.441 69.781ZM91.7686 63.3436C91.7686 63.3436 93.9563 62.9332 95.1871 62.7508C96.418 62.5684 97.9675 63.0243 99.0157 63.6626C98.1041 63.6626 96.9756 63.0321 95.3921 63.3581C94.359 63.571 94.2601 63.9272 93.379 63.9057C92.5024 63.8844 91.7686 63.3436 91.7686 63.3436Z" fill="#000066"/>
<path d="M97.0385 64.7861C97.6449 64.7861 98.1365 64.3925 98.1365 63.9069C98.1365 63.4213 97.6449 63.0277 97.0385 63.0277C96.432 63.0277 95.9404 63.4213 95.9404 63.9069C95.9404 64.3925 96.432 64.7861 97.0385 64.7861Z" fill="#000066"/>
<path d="M100.046 60.6315L99.8705 60.236C99.7391 59.9379 99.5267 59.6825 99.2576 59.4989C98.9885 59.3153 98.6734 59.2108 98.3479 59.1973C97.3749 59.1574 95.9048 59.1369 94.5891 59.2797C92.41 59.5163 90.5518 61.206 90.5518 61.206H90.822C90.822 61.206 92.2241 60.0619 94.4032 60.1153C97.0581 60.1799 100.046 60.6315 100.046 60.6315Z" fill="#000066"/>
<path d="M98.1363 47.0465C98.8227 49.0961 97.6605 52.9409 94.6574 56.4747C91.2113 60.5299 87.2583 66.1573 87.8663 74.3175C88.4743 82.4777 93.179 95.298 87.4609 98.8176C83.0688 101.521 80.1631 100.473 80.1631 100.473C80.1631 100.473 75.6191 102.641 71.041 100.778C66.5708 98.9582 65.5679 96.2155 65.5679 96.2155C65.5679 96.2155 60.4042 96.4278 58.4015 91.8941C56.6365 87.8987 60.818 82.8062 61.933 79.6636C63.048 76.5208 62.0679 69.7808 62.7762 60.1869C63.2939 53.1726 66.5183 44.9752 77.5856 43.3936C90.3186 41.574 97.1255 44.0278 98.1365 47.0465H98.1363Z" fill="#000066"/>
<path d="M151.252 109.537C151.252 109.537 151.815 115.09 150.409 119.518C149.56 122.195 148.219 124.058 147.497 124.791C147.382 124.907 147.242 124.997 147.088 125.055C146.935 125.112 146.77 125.136 146.607 125.124L141.458 124.764C140.972 124.73 140.483 124.778 140.013 124.907L136.142 125.971C135.561 126.13 134.953 126.167 134.357 126.08C133.761 125.992 133.189 125.782 132.679 125.462L129.502 123.472C129.502 123.472 116.536 122.154 112.179 120.784C107.889 119.434 104.277 89.5583 104.277 89.5583L106.429 89.0176C107.343 88.7879 108.308 88.8718 109.168 89.2557L129.9 98.5032C130.899 98.9138 131.749 99.6206 132.335 100.529L134.246 103.492L138.567 102.98C139.929 102.819 141.31 103.04 142.553 103.619C143.797 104.199 144.855 105.113 145.609 106.26L146.615 107.789L151.253 109.537L151.252 109.537ZM84.3929 177.291C84.219 177.291 84.0518 177.223 83.9265 177.102C83.8011 176.982 83.7273 176.817 83.7205 176.643L83.5688 172.755C83.5621 172.577 83.6263 172.403 83.7475 172.272C83.8687 172.141 84.037 172.063 84.2154 172.056L92.8474 171.719C93.2111 171.704 93.532 171.994 93.5468 172.366L93.6984 176.254C93.7052 176.433 93.641 176.606 93.5198 176.738C93.3986 176.869 93.2303 176.946 93.0519 176.954L84.4198 177.29L84.3929 177.291ZM84.9508 173.626L85.0303 175.667C85.0329 175.734 85.0617 175.796 85.1105 175.841C85.1592 175.887 85.2239 175.91 85.2902 175.908L92.0756 175.644C92.142 175.641 92.2046 175.612 92.2497 175.563C92.2948 175.515 92.3187 175.45 92.3162 175.384L92.2367 173.342C92.2341 173.276 92.2053 173.213 92.1566 173.168C92.1078 173.123 92.0431 173.099 91.9768 173.102L85.1914 173.366C85.125 173.369 85.0624 173.398 85.0173 173.446C84.9722 173.495 84.9483 173.56 84.9508 173.626Z" fill="#3366FF"/>
<path d="M88.4103 175.007C88.6877 175.007 88.9125 174.782 88.9125 174.505C88.9125 174.227 88.6877 174.002 88.4103 174.002C88.133 174.002 87.9082 174.227 87.9082 174.505C87.9082 174.782 88.133 175.007 88.4103 175.007Z" fill="#000066"/>
<path d="M81.8928 175.307C82.1701 175.307 82.3949 175.082 82.3949 174.804C82.3949 174.527 82.1701 174.302 81.8928 174.302C81.6154 174.302 81.3906 174.527 81.3906 174.804C81.3906 175.082 81.6154 175.307 81.8928 175.307Z" fill="#000066"/>
<path d="M95.508 174.283C95.7853 174.283 96.0101 174.058 96.0101 173.781C96.0101 173.504 95.7853 173.279 95.508 173.279C95.2307 173.279 95.0059 173.504 95.0059 173.781C95.0059 174.058 95.2307 174.283 95.508 174.283Z" fill="#000066"/>
<path d="M75.7434 175.102C76.0207 175.102 76.2455 174.877 76.2455 174.6C76.2455 174.323 76.0207 174.098 75.7434 174.098C75.466 174.098 75.2412 174.323 75.2412 174.6C75.2412 174.877 75.466 175.102 75.7434 175.102Z" fill="#000066"/>
<path d="M84.6768 174.444L88.4331 174.28L88.4539 174.754L84.6975 174.918L84.6768 174.444Z" fill="#3366FF"/>
<path d="M63.6183 102.28L64.0135 114.985H65.0768L63.6183 102.28ZM62.2479 114.985H60.1396C60.1396 114.985 64.6705 125.032 68.2564 137.864C71.4187 149.181 72.8944 166.332 72.8944 166.016C72.8944 165.699 72.5782 149.444 70.3646 140.385C68.151 131.327 61.378 115.459 61.378 115.459L62.2476 114.984L62.2479 114.985ZM115.257 121.514L110.843 105.741L109.086 106.304L111.546 104.898L115.257 121.514ZM102.691 96.0491L108.34 106.471L107.47 106.726L102.691 96.0491Z" fill="#000066"/>
</g>
<g clip-path="url(#clip4_327_11363)">
<path d="M137.571 45.6024C137.617 45.802 140.28 57.9855 142.966 63.7531C147.772 62.4902 168.418 56.0992 168.418 56.0992L137.691 44.3107" fill="#3366FF"/>
<path d="M170.006 55.7372L143.504 61.9188C140.747 57.2623 138.785 50.9873 137.188 43.9691L163.691 37.7875C165.18 44.6885 167.198 50.8004 170.006 55.7372Z" fill="white"/>
<path d="M148.827 46.2557C151.276 46.2557 153.262 44.2768 153.262 41.8356C153.262 39.3944 151.276 37.4154 148.827 37.4154C146.377 37.4154 144.392 39.3944 144.392 41.8356C144.392 44.2768 146.377 46.2557 148.827 46.2557Z" fill="#000066"/>
<path d="M149.647 45.6937C152.096 45.6937 154.082 43.7148 154.082 41.2736C154.082 38.8324 152.096 36.8534 149.647 36.8534C147.198 36.8534 145.212 38.8324 145.212 41.2736C145.212 43.7148 147.198 45.6937 149.647 45.6937Z" fill="#3366FF"/>
<path d="M153.506 48.4401L142.373 51.0066C141.891 51.1176 141.591 51.5969 141.703 52.077L141.703 52.0773C141.814 52.5574 142.295 52.8566 142.777 52.7455L153.909 50.179C154.391 50.0679 154.691 49.5887 154.58 49.1086L154.58 49.1083C154.468 48.6282 153.988 48.329 153.506 48.4401Z" fill="#3366FF"/>
<path d="M154.647 53.3577L143.515 55.9242C143.033 56.0352 142.733 56.5145 142.844 56.9946L142.844 56.9949C142.956 57.475 143.437 57.7742 143.918 57.6631L155.051 55.0966C155.533 54.9855 155.833 54.5063 155.722 54.0262L155.721 54.0259C155.61 53.5458 155.129 53.2466 154.647 53.3577Z" fill="#3366FF"/>
<path d="M162.924 46.2195L157.699 47.4239C157.218 47.5349 156.917 48.0141 157.029 48.4943L157.029 48.4946C157.14 48.9747 157.621 49.2738 158.103 49.1628L163.327 47.9584C163.809 47.8474 164.109 47.3681 163.998 46.888L163.997 46.8877C163.886 46.4076 163.405 46.1084 162.924 46.2195Z" fill="#3366FF"/>
<path d="M161.783 41.3019L156.559 42.5063C156.077 42.6173 155.777 43.0965 155.888 43.5767L155.888 43.577C156 44.0571 156.481 44.3562 156.962 44.2452L162.186 43.0408C162.668 42.9298 162.968 42.4505 162.857 41.9704L162.857 41.9701C162.745 41.49 162.265 41.1908 161.783 41.3019Z" fill="#3366FF"/>
<path d="M164.065 51.1373L158.841 52.3417C158.359 52.4528 158.059 52.932 158.171 53.4121L158.171 53.4124C158.282 53.8925 158.763 54.1917 159.245 54.0806L164.469 52.8763C164.95 52.7652 165.251 52.286 165.139 51.8059L165.139 51.8056C165.028 51.3255 164.547 51.0263 164.065 51.1373Z" fill="#3366FF"/>
</g>
<g clip-path="url(#clip5_327_11363)">
<path d="M228.246 168.125H186.687L187.598 113.197L227.739 114.456L228.246 168.125Z" fill="#3366FF"/>
<path d="M187.599 113.197H228.651V166.866H187.599V113.197Z" fill="white"/>
<path d="M192.208 128.379H194.592V133.766H192.208V128.379ZM196.415 126.35H198.799V133.766H196.415V126.35ZM200.621 123.552H203.005V133.766H200.621V123.552ZM204.828 124.462H207.212V133.766H204.828V124.462ZM209.035 123.062H211.419V133.766H209.035V123.062ZM213.242 123.062H215.626V133.766H213.242V123.062ZM217.449 121.244H219.833V133.766H217.449V121.244ZM221.655 118.445H224.039V133.766H221.655V118.445Z" fill="#3366FF"/>
<path d="M192.209 140.284H224.04V140.843H192.209V140.284ZM192.209 143.362H224.04V143.921H192.209V143.362ZM192.209 146.44H224.04V146.999H192.209V146.44ZM192.209 149.518H224.04V150.077H192.209V149.518ZM192.209 152.596H224.04V153.155H192.209V152.596ZM192.209 155.674H224.04V156.233H192.209V155.674Z" fill="#000066"/>
<path d="M204.283 117.448C206.495 117.448 208.289 115.658 208.289 113.451C208.289 111.243 206.495 109.454 204.283 109.454C202.07 109.454 200.276 111.243 200.276 113.451C200.276 115.658 202.07 117.448 204.283 117.448Z" fill="#000066"/>
<path d="M205.023 116.94C207.235 116.94 209.029 115.15 209.029 112.943C209.029 110.735 207.235 108.945 205.023 108.945C202.81 108.945 201.017 110.735 201.017 112.943C201.017 115.15 202.81 116.94 205.023 116.94Z" fill="#3366FF"/>
</g>
<defs>
<clipPath id="clip0_327_11363">
<rect width="214.124" height="163.821" fill="white" transform="translate(35.7773 18.0229)"/>
</clipPath>
<clipPath id="clip1_327_11363">
<rect width="62.946" height="62.946" fill="white" transform="translate(156.021 41.9641)"/>
</clipPath>
<clipPath id="clip2_327_11363">
<rect width="27.707" height="20.982" fill="white" transform="translate(149.563 114.594)"/>
</clipPath>
<clipPath id="clip3_327_11363">
<rect width="189.645" height="209.282" fill="white" transform="translate(18.5615 42.7709)"/>
</clipPath>
<clipPath id="clip4_327_11363">
<rect width="32.818" height="26.9" fill="white" transform="translate(137.189 36.8531)"/>
</clipPath>
<clipPath id="clip5_327_11363">
<rect width="41.964" height="59.18" fill="white" transform="translate(186.687 108.945)"/>
</clipPath>
</defs>
</svg>
