<svg width="206" height="206" viewBox="0 0 206 206" fill="none" xmlns="http://www.w3.org/2000/svg">
<g clip-path="url(#clip0_327_14492)">
<path d="M181.281 92.3079V73.5289C181.281 54.8778 166.166 39.7581 147.52 39.7581H65.4852C46.8398 39.7581 31.7246 54.8778 31.7246 73.5289V92.3079C31.7246 95.3583 34.1967 97.8312 37.2462 97.8312C34.1967 97.8312 31.7246 100.304 31.7246 103.354V130.144C31.7246 144.09 34.7432 157.871 40.5729 170.539L43.7145 177.366H169.922L173.229 169.78C178.54 157.599 181.281 144.452 181.281 131.163V103.354C181.281 100.304 178.809 97.8312 175.759 97.8312C178.809 97.8312 181.281 95.3583 181.281 92.3079Z" fill="#4F84E8"/>
</g>
<g clip-path="url(#clip1_327_14492)">
<path d="M169.954 103.358C171.144 102.989 171.943 102.155 171.739 101.497C171.534 100.839 170.403 100.605 169.213 100.974C168.023 101.344 167.224 102.177 167.429 102.835C167.634 103.494 168.764 103.728 169.954 103.358Z" fill="#070B31"/>
<path d="M37.4004 114.124L37.5702 112.026C38.4034 101.738 45.8088 93.1754 55.8727 90.8631L75.8008 86.2846L85.0844 76.5831H109.981L118.421 87.9718L137.808 90.394C146.63 91.4964 154.091 97.444 157.129 105.796L160.619 115.389V138.588H38.2446L37.4004 114.124Z" fill="#070B31"/>
<path d="M39.5095 104.586L20.7878 149.945L15.9038 162.292C14.3024 166.341 15.9601 170.99 19.8162 173.014C21.6235 173.963 23.6657 174.553 25.6083 174.566C26.8937 174.574 30.0845 174.616 32.1045 174.59L38.5465 174.542L70.4315 106.134L39.5095 104.586ZM148.166 101.321C151.956 100.493 155.798 102.486 157.302 106.06L175.777 149.945L180.798 164.262C180.473 168.337 175.893 178.749 170.746 178.784C169.46 178.792 167.414 178.808 167.414 178.808C163.479 178.779 158.223 174.802 156.558 171.238L126.133 106.134L148.166 101.321Z" fill="#070B31"/>
<path d="M137.473 95.1412L130.263 176.841H52.1934V95.1412H137.473Z" fill="#070B31"/>
<path d="M109.163 70.0811V85.7595C109.163 89.0497 108.112 92.0591 106.372 94.3708C106.123 94.701 106.915 95.017 106.64 95.3175C104.572 97.5721 101.772 98.9556 98.6895 98.9556H94.8938C88.5261 98.9556 83.3652 93.0482 83.3652 85.7595V70.0811H109.163Z" fill="white"/>
<path d="M110.218 70.081V85.7594C110.218 89.5198 108.845 92.9132 106.64 95.3175L103.718 93.2154C102.019 91.9928 100.016 91.2612 97.9287 91.1007L97.0875 91.036C94.9976 90.8753 92.9923 90.1422 91.2919 88.9171C89.5915 87.6921 88.2615 86.0224 87.4481 84.0914L84.7884 77.7774C83.8696 75.5964 83.3881 73.2563 83.3711 70.8898L83.3652 70.0808H110.218V70.081Z" fill="#4F84E8"/>
<path d="M117.699 57.6959L120.393 58.2506C122.087 58.5994 123.159 60.2774 122.763 61.9606L121.508 67.2947C121.459 67.4999 121.378 67.6957 121.266 67.8742L119.022 71.4477C118.786 71.8239 118.426 72.1063 118.004 72.2466C117.583 72.3868 117.125 72.3763 116.71 72.2166C116.296 72.057 115.949 71.7583 115.731 71.3716C115.512 70.9849 115.434 70.5342 115.511 70.0967L117.699 57.6959Z" fill="white"/>
<path d="M106.918 26.2555L111.674 27.0938C120.647 28.6754 126.639 37.2283 125.056 46.1975L123.194 56.7567L121.93 62.0309L118.58 67.0221L102.844 49.35L106.918 26.2555Z" fill="#070B31"/>
<path d="M96.6133 84.9844L104.74 38.913L121.693 41.9008L115.455 74.6036C115.07 76.6214 113.913 78.4096 112.23 79.5878L105.607 84.2234C103.892 85.4234 101.771 85.8934 99.7098 85.5302L96.6133 84.9844Z" fill="white"/>
<path d="M101.717 69.5783L101.772 69.1436C101.823 68.7473 102.294 68.5661 102.597 68.8268L103.73 69.8008L101.717 69.5783ZM104.479 40.0873L113.189 41.6224C117.385 42.3621 120.188 46.362 119.448 50.5568L117.89 59.3871L122.983 52.8993L123.113 41.3343L108.824 34.2318L104.479 40.0873Z" fill="#070B31"/>
<path d="M87.0178 52.2883L84.2962 51.8885C82.5846 51.6369 81.003 52.8472 80.7994 54.5644L80.154 60.0058C80.1291 60.2152 80.139 60.4272 80.1833 60.6333L81.0686 64.7583C81.162 65.1927 81.4035 65.5811 81.7517 65.8571C82.1 66.1332 82.5334 66.2796 82.9778 66.2715C83.4222 66.2633 83.8499 66.101 84.1878 65.8123C84.5257 65.5237 84.7527 65.1266 84.83 64.6891L87.0178 52.2883Z" fill="white"/>
<path d="M107.907 26.4298L103.15 25.5914C94.1772 24.0099 85.6206 29.9988 84.0384 38.9679L82.1758 49.5271L82.9987 60.7506L103.833 49.5241L107.907 26.4298Z" fill="#070B31"/>
<path d="M97.4936 85.1397L105.621 39.0683L88.6681 36.0802L83.3399 68.9431C83.0112 70.9708 83.4867 73.0467 84.6654 74.7294L89.303 81.3498C90.5034 83.0635 92.3358 84.2303 94.3969 84.5936L97.4936 85.1397Z" fill="white"/>
<path d="M103.539 25.6115L107.395 26.23L109.32 26.5576C109.962 26.6704 110.601 26.7661 111.247 26.9058C112.538 27.1705 113.798 27.5643 115.01 28.0813C116.217 28.6096 117.371 29.2508 118.458 29.9963C119.538 30.7483 120.546 31.6005 121.466 32.5415C122.386 33.4793 123.238 34.4834 123.997 35.5536C124.754 36.6241 125.421 37.7608 126.054 38.8928L127.949 42.3056L127.735 42.4289C127.22 41.9854 126.725 41.5187 126.252 41.0302C125.78 40.5513 125.332 40.0586 124.89 39.5622C124.003 38.5336 123.223 37.6094 122.386 36.7116C121.549 35.8225 120.693 34.9841 119.807 34.1998C119.576 34.0138 119.369 33.8037 119.14 33.6183L118.455 33.0655C117.992 32.7085 117.534 32.3466 117.047 32.0283C116.929 31.9438 116.813 31.8558 116.693 31.7736L116.327 31.539C116.083 31.3815 115.84 31.2225 115.588 31.0808C115.338 30.9357 115.096 30.7716 114.839 30.6391C114.582 30.505 114.325 30.3709 114.072 30.2256L113.288 29.8423L112.489 29.4825C112.224 29.3514 111.945 29.2666 111.672 29.1516C111.536 29.0962 111.399 29.0369 111.261 28.9838L110.84 28.8408C110.558 28.7486 110.288 28.6354 109.962 28.5381C109.649 28.4377 109.336 28.3386 109.025 28.2268C108.4 28.0124 107.779 27.7852 107.163 27.5454C106.545 27.3001 105.929 27.0477 105.318 26.7678C104.697 26.491 104.089 26.1863 103.496 25.8548L103.539 25.6115Z" fill="#070B31"/>
<path d="M100.966 54.1282L99.5073 51.8857L89.577 50.0032L86.8086 51.4344L90.4763 51.2867L97.1204 52.6563L98.8655 54.0227L100.966 54.1282Z" fill="white"/>
<path d="M86.8274 50.6014L87.084 49.147C87.219 48.3821 87.5695 47.6717 88.0942 47.0989C88.619 46.5261 89.2963 46.1148 90.0466 45.9133C90.797 45.7118 91.5893 45.7283 92.3306 45.961C93.0719 46.1937 93.7314 46.633 94.2317 47.2272L96.8632 50.3531C97.601 51.2295 98.4639 51.9923 99.4242 52.6172L105.865 56.8069L104.729 59.614L105.659 59.6079C106.006 59.6056 106.349 59.6773 106.665 59.8182C106.982 59.959 107.265 60.1658 107.495 60.4247L107.522 60.4551C108.072 61.0738 108.78 61.5312 109.571 61.7781L112.105 62.5698C112.966 62.7215 113.756 63.1429 114.361 63.7731C114.966 64.4034 115.355 65.2097 115.471 66.0754L116.016 71.7008L119.402 55.4947L121.957 39.2207L94.9778 34.4653C91.6503 33.8788 88.3845 35.7765 87.2477 38.9571L85.1914 44.7103L86.8274 50.6014Z" fill="#4F84E8"/>
<path d="M98.019 68.9268L98.1157 68.4995C98.2036 68.1097 97.8228 67.7784 97.4487 67.9197L96.0511 68.4476L98.019 68.9268ZM105.466 40.2615L96.7558 38.7263C92.5594 37.9867 88.5576 40.7875 87.8176 44.9823L86.2599 53.8125L83.6934 45.9746L87.5292 35.063L103.387 33.2737L105.466 40.2615ZM111.65 68.1378C111.107 68.1377 110.565 68.0902 110.03 67.9959L109.952 67.9821C108.985 67.811 108.064 67.4393 107.25 66.8909C106.435 66.3425 105.745 65.6296 105.222 64.7982C105.211 64.7797 105.2 64.7606 105.191 64.741L104.172 62.6075C103.742 61.7108 103.604 60.7017 103.779 59.7226C103.902 59.0296 104.176 58.372 104.582 57.7967L105.089 57.079C105.116 57.0408 105.148 57.0062 105.183 56.9758C105.705 56.525 106.322 56.1963 106.987 56.0136C107.653 55.8309 108.351 55.7988 109.03 55.9196L117.696 57.447C118.54 57.5957 119.354 57.8688 120.116 58.2587L121.641 59.0389C121.75 59.0945 121.838 59.1834 121.892 59.2927C121.947 59.4019 121.964 59.5257 121.943 59.6458L121.558 61.828C121.539 61.9402 121.486 62.0438 121.406 62.1256L118.325 65.3073C117.46 66.2026 116.422 66.9146 115.276 67.4008C114.129 67.8871 112.896 68.1377 111.65 68.1378ZM106.207 64.2192C106.645 64.9085 107.222 65.4992 107.901 65.9535C108.58 66.4079 109.346 66.7161 110.15 66.8585L110.228 66.8722C111.542 67.1044 112.892 67.0108 114.161 66.5995C115.43 66.1883 116.578 65.4719 117.506 64.5135L120.465 61.4575L120.746 59.8627L119.596 59.2744C118.936 58.9365 118.229 58.6992 117.499 58.5707L108.833 57.0433C108.331 56.9539 107.816 56.975 107.323 57.1052C106.83 57.2354 106.372 57.4715 105.98 57.7971L105.514 58.4553C105.206 58.8931 104.997 59.3934 104.903 59.9207C104.77 60.6657 104.875 61.4336 105.202 62.1159L106.207 64.2192Z" fill="#070B31"/>
<path d="M120.636 62.5362L117.231 64.9538C118.058 64.0379 118.61 62.9077 118.825 61.6926L119.11 60.0763C119.155 59.8215 119.12 59.5591 119.011 59.3245C118.903 59.0899 118.724 58.8943 118.501 58.7641L116.543 57.6246L121.245 59.0872L120.636 62.5362ZM100.353 57.7275L104.724 58.4979L106.196 56.7251L99.5762 55.5583L100.353 57.7275Z" fill="#070B31"/>
<path d="M103.761 59.837L103.846 59.357C103.893 59.0923 103.832 58.8198 103.678 58.5996C103.524 58.3794 103.288 58.2294 103.023 58.1827L101.628 57.9368L101.764 57.1626L105.556 57.8309L104.117 60.6984L103.761 59.837ZM100.595 78.1026L98.8728 77.6654L97.9462 77.5021L96.1781 77.3241C95.6419 77.2702 95.1322 77.0649 94.7083 76.7324L92.9277 75.3351L95.1073 77.6418L97.7959 78.3523L98.2529 78.4683L98.7224 78.5155L101.447 78.7897L101.492 78.7669L104.329 77.3446L102.178 78.0488C101.666 78.2166 101.117 78.2353 100.595 78.1026Z" fill="#070B31"/>
<path d="M112.776 60.8053C112.904 60.0787 112.261 59.3579 111.339 59.1954C110.417 59.0329 109.565 59.4903 109.437 60.217C109.309 60.9436 109.953 61.6644 110.875 61.8269C111.797 61.9894 112.648 61.532 112.776 60.8053Z" fill="#070B31"/>
<path d="M106.117 59.552L107.34 59.24L108.566 58.9435C108.773 58.895 108.97 58.8427 109.185 58.7974C109.401 58.7572 109.621 58.7496 109.839 58.7748C110.265 58.8406 110.672 58.9138 111.089 58.9834L112.33 59.2107L112.95 59.3244C113.384 59.3998 113.785 59.6042 114.101 59.9109C114.261 60.0619 114.382 60.2437 114.506 60.4097L115.242 61.4343L115.161 61.4944C114.759 61.2704 114.417 61.0006 114.072 60.7336C113.989 60.6689 113.904 60.5864 113.831 60.5308C113.766 60.4833 113.698 60.4416 113.626 60.4059C113.494 60.337 113.355 60.2839 113.21 60.2477C113.069 60.2125 112.942 60.202 112.796 60.198C112.585 60.1874 112.375 60.1644 112.165 60.1448C111.746 60.102 111.329 60.0402 110.914 59.9708L110.295 59.8512L109.987 59.7814C109.887 59.7582 109.766 59.7331 109.724 59.7186C109.602 59.6857 109.474 59.6762 109.342 59.673C109.292 59.669 109.17 59.6884 109.067 59.6983L108.75 59.7264C107.9 59.7869 107.041 59.8055 106.14 59.6494L106.117 59.552Z" fill="#070B31"/>
<path d="M104.277 54.7118L106.415 53.1033L116.391 54.7291L118.502 57.0206L115.106 55.6278L108.394 54.6433L106.287 55.3308L104.277 54.7118Z" fill="#4F84E8"/>
<path d="M104.919 96.4079L102.387 103.157L98.167 114.545L86.7734 92.6117L104.919 96.4079Z" fill="white"/>
<path d="M124.867 40.8868C125.372 41.7579 125.679 42.6945 125.937 43.6454C126.178 44.5998 126.35 45.5697 126.466 46.5451C126.573 47.521 126.65 48.501 126.665 49.4823C126.669 49.7276 126.679 49.9729 126.679 50.2182L126.67 50.9538C126.671 51.4433 126.644 51.937 126.606 52.4255C126.454 54.3793 126.226 56.3177 125.996 58.2573C125.879 59.2266 125.762 60.1957 125.632 61.1633L125.22 64.063L125.011 64.0358C124.573 62.0133 124.434 60.0346 124.379 58.0724C124.358 57.0925 124.361 56.1167 124.39 55.1493C124.408 54.665 124.415 54.1835 124.446 53.704C124.466 53.2267 124.488 52.7481 124.518 52.2835L124.722 46.7415C124.745 45.8141 124.769 44.8838 124.775 43.9348C124.777 42.9847 124.774 42.0211 124.689 40.9997L124.867 40.8868Z" fill="#070B31"/>
<path d="M87.7885 53.0775C87.9963 53.3715 88.2217 54.5336 88.7508 54.8999C89.0186 55.0853 89.9176 55.3647 90.255 55.4158C91.4678 55.5988 92.5624 55.551 93.6674 56.1347C94.5092 56.5795 95.9914 57.4423 96.848 57.6505C97.232 57.7437 97.3494 57.8224 97.7125 57.7169C98.5604 57.4706 99.0411 57.1492 99.9355 57.0804C99.6371 56.3366 99.4409 55.6927 98.8073 55.1365C98.0399 54.4631 96.1803 54.0793 95.1143 53.849C93.4424 53.4877 91.756 53.0459 90.067 52.7411C89.5323 52.6445 88.4303 52.4587 88.0316 52.8132C88.1904 52.4381 87.6431 53.4584 87.7885 53.0775Z" fill="#4F84E8"/>
<path d="M93.2141 64.9243C92.8094 64.9243 92.4028 64.8893 91.999 64.818L91.9207 64.8043C90.4231 64.5414 89.0129 63.9149 87.8141 62.9798C86.6154 62.0448 85.6647 60.8297 85.0456 59.4415L83.2391 55.3987C83.1926 55.2947 83.1783 55.1791 83.1981 55.067L83.583 52.8848C83.6042 52.7646 83.6633 52.6544 83.7518 52.5704C83.8402 52.4863 83.9533 52.4328 84.0744 52.4176L85.7743 52.2059C86.6232 52.1001 87.4832 52.1218 88.3256 52.2704L96.9917 53.798C97.6716 53.9166 98.3164 54.1852 98.8793 54.5844C99.4422 54.9836 99.909 55.5032 100.246 56.1054C100.268 56.1459 100.286 56.1894 100.299 56.2345L100.53 57.0825C100.714 57.7619 100.747 58.4734 100.625 59.1667C100.454 60.1465 99.9798 61.0478 99.2685 61.7433L97.5808 63.3997C97.5652 63.415 97.5488 63.4293 97.5316 63.4427C96.2974 64.4029 94.7781 64.9243 93.2141 64.9243ZM84.3527 55.0927L86.0879 58.976C86.631 60.1937 87.4649 61.2595 88.5165 62.0798C89.568 62.9001 90.8049 63.4497 92.1186 63.6804L92.1969 63.6941C93.0016 63.8353 93.8269 63.8075 94.6203 63.6127C95.4138 63.4178 96.1579 63.0601 96.8056 62.5622L98.4692 60.9294C99.0103 60.4 99.3715 59.7142 99.5016 58.9686C99.5939 58.441 99.5691 57.8996 99.4288 57.3827L99.2168 56.6049C98.9597 56.165 98.6097 55.7865 98.1912 55.4958C97.7727 55.2051 97.2958 55.0091 96.7938 54.9217L88.1275 53.3941C87.3971 53.2655 86.6515 53.2466 85.9155 53.3382L84.6337 53.4979L84.3527 55.0927Z" fill="#070B31"/>
<path d="M83.8242 56.0479L86.1972 59.4839C85.7333 58.3405 85.6009 57.0895 85.8153 55.8744L86.1004 54.258C86.1453 54.0033 86.2673 53.7685 86.4499 53.5852C86.6325 53.402 86.8669 53.2791 87.1216 53.2332L89.3505 52.8315L84.4325 52.5986L83.8242 56.0479ZM104.53 58.4634L100.159 57.693L99.3823 55.524L106.002 56.6908L104.53 58.4634Z" fill="#070B31"/>
<path d="M100.604 59.2802L100.688 58.8002C100.735 58.5355 100.885 58.3002 101.105 58.146C101.326 57.9918 101.598 57.9313 101.863 57.9779L103.259 58.2238L103.395 57.4496L99.6035 56.7812L99.9742 59.9673L100.604 59.2802Z" fill="#070B31"/>
<path d="M94.5809 57.2633C94.709 56.5367 94.0655 55.8159 93.1434 55.6534C92.2213 55.4909 91.37 55.9483 91.2418 56.675C91.1137 57.4016 91.7572 58.1224 92.6793 58.2849C93.6014 58.4474 94.4527 57.99 94.5809 57.2633Z" fill="#070B31"/>
<path d="M97.2493 57.8593C96.3496 57.698 95.5483 57.3867 94.7704 57.0393L94.4817 56.9046C94.3882 56.8601 94.2804 56.8002 94.2323 56.7869C94.1066 56.7445 93.9831 56.7097 93.8574 56.6989C93.8129 56.6983 93.6913 56.6806 93.589 56.6681L93.2759 56.6285L92.6528 56.5292C92.2385 56.4545 91.8267 56.3665 91.4181 56.2653C91.2141 56.2117 91.0092 56.1618 90.8069 56.0993C90.6689 56.0534 90.5453 56.0196 90.4007 56.0044C90.2527 55.9891 90.1033 55.9912 89.9557 56.0108C89.8762 56.0198 89.7977 56.0357 89.7209 56.0582C89.6329 56.0856 89.5245 56.1339 89.4247 56.1664C89.009 56.2991 88.5959 56.4361 88.141 56.5089L88.0859 56.425L89.128 55.7136C89.301 55.5999 89.4768 55.4704 89.6793 55.3833C90.0809 55.2031 90.5275 55.1479 90.9609 55.2251L91.5829 55.3306L92.8269 55.5415C93.2426 55.6187 93.65 55.6889 94.0722 55.7726C94.2857 55.8235 94.4912 55.9064 94.6798 56.0177C94.8661 56.1337 95.0332 56.2501 95.2109 56.3663L96.2618 57.0642L97.3041 57.7754L97.2493 57.8593ZM93.3422 36.7871L96.8781 44.438C97.8939 46.6358 99.457 48.5364 101.418 49.9577L111.381 57.1802L108.596 52.3229L106.121 44.0071L110.646 51.35C111.179 52.2147 111.841 52.9933 112.608 53.6592L118.881 59.1032L122.428 39.0011L103.391 34.5747L90.2332 34.0118L93.3422 36.7871ZM106.161 74.3488L104.34 74.6089L102.226 73.9388C102.051 73.8832 101.868 73.8545 101.684 73.8536L99.067 73.8423L97.3807 73.1165C97.2007 73.0391 97.0093 72.9911 96.814 72.9746L94.0051 72.7376L92.4942 71.884C92.413 71.8382 92.319 71.8205 92.2268 71.8337C92.1345 71.8469 92.0492 71.8903 91.9842 71.957L90.8155 73.1568L90.9518 73.0278C91.1118 72.8763 91.3113 72.773 91.5273 72.7298C91.7434 72.6865 91.9673 72.7051 92.1733 72.7833L93.7561 73.9618L98.7864 75.2441L103.952 75.7589L104.887 75.5843L105.958 75.2779C106.161 75.285 106.358 75.3449 106.53 75.4516C106.703 75.5582 106.845 75.708 106.942 75.8861L107.031 76.0512L106.626 74.6494C106.598 74.5517 106.535 74.4675 106.45 74.4123C106.364 74.3571 106.261 74.3345 106.161 74.3488ZM147.109 90.0808H159.769V106.953H147.109V90.0808Z" fill="#070B31"/>
<path d="M148.58 81.7859L146.487 84.8104C146.088 85.386 145.54 85.8419 144.902 86.1288C144.263 86.4157 143.558 86.5227 142.863 86.4384L139.198 85.9936L136.015 83.3923C135.442 82.9237 134.751 82.6217 134.017 82.5195C133.283 82.4173 132.536 82.5188 131.856 82.8128L130.868 83.2401C130.44 83.4254 130.352 83.9947 130.706 84.2996L133.383 86.6103L133.921 87.6766C134.356 88.5392 135.003 89.278 135.8 89.8244L142.808 94.6279L150.783 97.8098C151.632 98.1485 152.538 98.3209 153.452 98.3176L154.902 98.3125L157.018 106.207L168.048 104.23L148.58 81.7859Z" fill="white"/>
<path d="M154.657 71.0301L147.512 74.9316L147.7 85.9634L157.881 97.1091L169.958 95.8739L170.602 89.7763C170.749 88.383 170.658 86.9748 170.332 85.6121L167.191 72.4767L158.385 70.7186L154.657 71.0301Z" fill="white"/>
<path d="M169.941 90.805L171.8 110.627L156.439 110.98L155.182 92.7953L169.941 90.805ZM143.618 58.9199L142.648 57.9995C142.487 57.846 142.28 57.7488 142.058 57.7225C141.837 57.6961 141.613 57.742 141.419 57.8534L141.278 57.935C141.105 58.0342 140.965 58.181 140.874 58.3578C140.783 58.5346 140.745 58.7338 140.765 58.9317L140.9 60.3083C140.995 61.2793 141.269 62.2243 141.708 63.0955L142.712 65.0837L144.519 70.2443L147.589 76.2615L151.359 74.2609L148.157 68.0454L145.887 63.2839L143.618 58.9199ZM156.764 54.8839L156.015 53.7769C155.89 53.5922 155.709 53.4528 155.498 53.3795C155.287 53.3063 155.059 53.303 154.846 53.3702L154.69 53.4194C154.501 53.4793 154.332 53.5926 154.205 53.7458C154.079 53.8989 153.998 54.0854 153.975 54.2828L153.811 55.6562C153.695 56.625 153.76 57.6069 154.002 58.5521L154.554 60.7094L155.211 66.1376L156.916 72.6734L161.028 71.5291L159.236 64.7709L158.042 59.6332L156.764 54.8839ZM164.517 59.0528L163.936 58.0936C163.826 57.9132 163.664 57.7706 163.472 57.6848C163.279 57.599 163.065 57.5742 162.857 57.6136C162.65 57.6531 162.46 57.7549 162.312 57.9055C162.164 58.0561 162.066 58.2482 162.031 58.4561L161.859 59.4653C161.695 60.4272 161.711 61.411 161.906 62.3671L162.276 64.1792L162.622 69.0771L163.86 75.0155L167.6 74.1723L166.293 68.0306L165.452 63.3691L164.517 59.0528ZM147.097 54.4604L145.928 53.3508C145.766 53.1973 145.559 53.1001 145.338 53.0738C145.116 53.0474 144.892 53.0934 144.699 53.2047L144.376 53.3903C144.204 53.4895 144.064 53.6363 143.973 53.8131C143.882 53.9899 143.844 54.1891 143.863 54.387L144.043 56.2206C144.138 57.1916 144.412 58.1366 144.852 59.0078L146.072 61.4267L148.115 67.2592L151.585 74.0599L155.846 71.7988L152.226 64.7741L149.661 59.3927L147.097 54.4604Z" fill="white"/>
<path d="M155.666 104.617C155.426 122.742 150.854 145.009 157.258 162.897C159.765 169.9 167.363 183.84 174.695 176.807C179.001 172.676 183.324 157.902 183.724 151.849C184.349 142.389 174.173 107.973 171.681 101.411C168.49 105.282 161.844 106.347 155.666 104.617Z" fill="#070B31"/>
<path d="M161.938 103.451C160.849 103.398 157.591 102.986 155.805 102.118L155.873 105.509C157.413 106.009 160.171 106.137 161.646 106.028C164.809 105.792 167.618 104.515 170.272 102.838C168.107 103.826 164.372 103.568 161.938 103.451ZM149.915 82.244C153.605 82.0477 157.778 84.7508 158.852 86.7208C159.64 88.1663 160.265 89.2147 160.803 91.2463C161.64 87.8557 162.61 85.1359 164.769 82.3486C159.939 83.5265 149.448 78.7679 149.915 82.244Z" fill="#4F84E8"/>
<path d="M28.0273 178.771H66.8666L69.2533 177.506H89.6975C90.6717 177.259 91.4686 178.281 92.0429 178.046C90.7002 173.096 88.701 164.439 88.1681 162.472C70.2667 159.578 51.9516 151.06 33.3103 154.77C28.1368 155.799 18.412 155.989 16.0641 161.802C15.152 164.061 14.4152 166.44 15.101 169.817C15.7725 173.124 21.5689 178.238 28.0273 178.771Z" fill="#070B31"/>
<path d="M147.67 178.489L66.8671 178.771C64.8192 178.779 63.1631 177.051 63.168 174.913L63.2752 128.564C63.28 126.426 64.9443 124.687 66.9922 124.679L147.795 124.397C149.843 124.39 151.499 126.118 151.494 128.256L151.387 174.605C151.382 176.743 149.718 178.482 147.67 178.489Z" fill="white"/>
<path d="M107.408 156.795C111.44 156.74 114.674 154.096 114.63 150.889C114.587 147.682 111.283 145.126 107.252 145.18C103.22 145.235 99.9863 147.879 100.03 151.086C100.073 154.293 103.377 156.849 107.408 156.795Z" fill="#4F84E8"/>
<path d="M108.817 158.256C112.849 158.202 116.082 155.558 116.039 152.351C115.995 149.143 112.692 146.588 108.66 146.642C104.628 146.696 101.394 149.34 101.438 152.548C101.481 155.755 104.785 158.311 108.817 158.256Z" fill="white"/>
</g>
<g clip-path="url(#clip2_327_14492)">
<path d="M190.509 177.981H15.4922V182.684C15.4922 182.684 102.095 182.064 130.955 182.684C162.96 183.372 182.613 183.774 190.509 187.46V177.981Z" fill="#070B31"/>
<path d="M9.47656 174.688H196.525V178.596H9.47656V174.688Z" fill="white"/>
</g>
<defs>
<clipPath id="clip0_327_14492">
<rect width="149.556" height="137.608" fill="white" transform="translate(31.7246 39.7581)"/>
</clipPath>
<clipPath id="clip1_327_14492">
<rect width="168.92" height="153.47" fill="white" transform="translate(14.832 25.338)"/>
</clipPath>
<clipPath id="clip2_327_14492">
<rect width="187.048" height="12.772" fill="white" transform="translate(9.47656 174.688)"/>
</clipPath>
</defs>
</svg>
