<svg width="640" height="328" viewBox="0 0 640 328" fill="none" xmlns="http://www.w3.org/2000/svg">
<g clip-path="url(#clip0_2097_2496)">
<path d="M534.667 201.054C542.338 201.054 548.565 207.278 548.565 214.943V286.259H520.77V214.943C520.77 207.278 526.997 201.054 534.667 201.054Z" fill="#4F84E8"/>
<path d="M531.105 202.284C538.665 202.284 544.802 208.418 544.802 215.972V285.132H517.408V215.972C517.408 208.418 523.546 202.284 531.105 202.284ZM462.17 232.481C466.419 240.941 475.799 253.921 475.799 253.921L462.739 265.017C455.782 268.506 444.247 259.596 436.976 245.117C429.705 230.637 429.45 216.07 436.407 212.582L454.839 204.637C454.839 204.637 457.625 223.431 462.17 232.481Z" fill="#23286B"/>
<path d="M614.764 254.324L540.355 97.1909C540.355 97.1909 448.319 194.351 448.101 194.461C438.569 199.242 438.917 219.199 448.88 239.039C458.514 258.223 473.608 270.268 483.214 266.72L614.764 254.324Z" fill="#23286B"/>
<path d="M622.703 261.178C645.554 249.718 644.718 201.873 620.835 154.313C596.952 106.753 559.067 77.4882 536.216 88.9482C513.364 100.408 514.201 148.253 538.083 195.813C561.966 243.373 599.852 272.638 622.703 261.178Z" fill="white"/>
<path d="M618.56 252.935C617.56 253.434 616.516 253.841 615.442 254.149C598.74 258.91 573.793 240.298 554.119 209.313C550.776 204.064 547.585 198.446 544.618 192.536C541.916 187.149 539.518 181.781 537.443 176.473C523.074 139.87 523.503 106.554 539.67 97.5553C539.895 97.4299 540.119 97.3111 540.35 97.1922C559.596 87.5396 592.702 114.583 614.299 157.59C635.896 200.591 637.799 243.282 618.56 252.935Z" fill="#23286B"/>
<path d="M615.443 254.149C605.672 256.936 593.079 251.72 580.368 240.7C571.357 232.897 562.286 222.168 554.12 209.313C550.777 204.064 547.586 198.446 544.619 192.536C541.917 187.149 539.519 181.781 537.445 176.473C532.476 163.81 529.272 151.536 527.885 140.53C525.255 119.726 529.1 103.438 539.671 97.5554C559.214 91.983 590.027 118.406 610.495 159.168C631.834 201.661 633.955 243.843 615.443 254.149Z" fill="#4F84E8"/>
<path d="M580.37 240.7C571.359 232.897 562.288 222.168 554.122 209.313C550.779 204.064 547.588 198.446 544.621 192.536C541.919 187.149 539.521 181.781 537.447 176.473C532.478 163.81 529.274 151.536 527.887 140.53C540.783 138.107 560.312 155.266 573.413 181.352C585.827 206.078 588.364 230.639 580.37 240.7Z" fill="#23286B"/>
<path d="M591.045 187.176L553.426 208.215C551.166 204.666 549.671 202.045 547.577 198.183C546.568 196.332 544.73 194.752 543.769 192.836C541.067 187.453 538.348 182.189 536.271 176.882L578.868 161.511L580.662 165.285L591.045 187.175V187.176Z" fill="white"/>
<path d="M591.042 187.176L554.117 209.314C551.807 205.681 549.625 201.969 547.574 198.183C561.633 193.968 574.476 187.577 574.765 185.354C575.261 181.54 573.78 173.05 576.753 164.885L580.44 165.551C580.44 165.551 580.517 165.456 580.658 165.285L591.041 187.176H591.042Z" fill="#4F84E8"/>
<path d="M591.046 187.174C594.216 185.671 594.061 178.708 590.697 171.62C587.334 164.533 582.037 160.006 578.866 161.509C575.696 163.012 575.851 169.975 579.215 177.062C582.578 184.15 587.875 188.677 591.046 187.174Z" fill="white"/>
<path d="M486.494 201.054C494.165 201.054 500.392 207.278 500.392 214.943V286.259H472.596V214.943C472.596 207.278 478.824 201.054 486.494 201.054Z" fill="#4F84E8"/>
<path d="M482.936 202.284C490.495 202.284 496.633 208.418 496.633 215.972V286.259H469.238V215.972C469.238 208.418 475.376 202.284 482.935 202.284H482.936Z" fill="#23286B"/>
<path d="M482.935 224.086C486.781 224.086 489.899 220.97 489.899 217.126C489.899 213.283 486.781 210.167 482.935 210.167C479.089 210.167 475.971 213.283 475.971 217.126C475.971 220.97 479.089 224.086 482.935 224.086Z" fill="#4F84E8"/>
<path d="M484.615 224.304C488.2 224.304 491.106 221.4 491.106 217.818C491.106 214.236 488.2 211.332 484.615 211.332C481.031 211.332 478.125 214.236 478.125 217.818C478.125 221.4 481.031 224.304 484.615 224.304Z" fill="#23286B"/>
<path d="M497.111 280.876H545.8V286.259H497.111V280.876Z" fill="#4F84E8"/>
</g>
<g clip-path="url(#clip1_2097_2496)">
<path d="M100.556 0.584259H452.189C465.099 0.584259 475.581 11.0307 475.581 23.8982V271.545H77.1641V23.8982C77.1641 11.0307 87.6453 0.584259 100.556 0.584259Z" fill="#23286B"/>
<path d="M93.2046 22.2442H459.541V249.885H93.2046V22.2442ZM472.871 286.386H79.8777C60.808 286.386 42.1847 283.246 26.4552 277.381L25.9395 277.189H526.806C510.973 283.176 492.153 286.386 472.871 286.386Z" fill="#4F84E8"/>
<path d="M525.514 269.539H27.2337C25.4715 269.539 24.043 270.963 24.043 272.72V274.783C24.043 276.539 25.4715 277.963 27.2337 277.963H525.514C527.276 277.963 528.704 276.539 528.704 274.783V272.72C528.704 270.963 527.276 269.539 525.514 269.539Z" fill="#4F84E8"/>
<path d="M241.879 263.179H310.869V268.852C310.869 273.122 307.391 276.588 303.108 276.588H249.64C245.357 276.588 241.879 273.122 241.879 268.852V263.179Z" fill="#23286B"/>
<path d="M93.2051 22.2435H459.544V249.887H93.2051V22.2435Z" fill="#4F84E8"/>
<path d="M459.543 34.2445V249.887H384.972L375.729 235.99L373.421 232.524L325.984 161.211L323.676 157.745L318.308 149.666L316 146.2L257.6 58.4138L255.292 54.9477L247.405 43.0864L233.541 26.1861L459.543 34.2445Z" fill="white"/>
<path d="M247.406 43.0865H93.2056L89.5547 16.5383L232.493 20.6674L247.406 43.0865Z" fill="#23286B"/>
<path d="M459.543 22.2435V43.0864H247.405L233.541 22.2435H459.543Z" fill="#4F84E8"/>
<path d="M113.326 58.3861H229.574V126.803H113.326V58.3861ZM113.326 135.312H229.574V241.978H113.326V135.312Z" fill="#23286B"/>
<path d="M109.762 54.9483H226.01V123.365H109.762V54.9483ZM109.762 131.874H226.01V238.54H109.762V131.874Z" fill="#4F84E8"/>
<path d="M117.912 63.2637H132.19V73.6206H117.912V63.2637ZM132.19 63.2637H146.469V73.6206H132.19V63.2637ZM146.469 63.2637H160.748V73.6206H146.469V63.2637ZM160.748 63.2637H175.026V73.6206H160.748V63.2637ZM175.026 63.2637H189.304V73.6206H175.026V63.2637ZM189.305 63.2637H203.583V73.6206H189.305V63.2637ZM203.583 63.2637H217.861V73.6206H203.583V63.2637Z" fill="#23286B"/>
<path d="M117.912 73.6213H132.19V83.9781H117.912V73.6213Z" fill="#4F84E8"/>
<path d="M132.52 84.3076H117.58V73.2917H132.52V84.3076ZM118.241 83.6486H131.858V73.9507H118.241V83.6486Z" fill="white"/>
<path d="M132.189 73.6213H146.468V83.9781H132.189V73.6213Z" fill="#4F84E8"/>
<path d="M146.801 84.3076H131.861V73.2917H146.801V84.3076ZM132.522 83.6486H146.14V73.9507H132.522V83.6486Z" fill="white"/>
<path d="M146.469 73.6213H160.747V83.9781H146.469V73.6213Z" fill="#4F84E8"/>
<path d="M161.076 84.3076H146.137V73.2917H161.076V84.3076ZM146.798 83.6486H160.415V73.9507H146.798V83.6486Z" fill="white"/>
<path d="M160.746 73.6213H175.024V83.9781H160.746V73.6213Z" fill="#4F84E8"/>
<path d="M175.355 84.3076H160.416V73.2917H175.355V84.3076ZM161.077 83.6486H174.694V73.9507H161.077V83.6486Z" fill="white"/>
<path d="M175.025 73.6213H189.304V83.9781H175.025V73.6213Z" fill="#4F84E8"/>
<path d="M189.635 84.3076H174.695V73.2917H189.635V84.3076ZM175.356 83.6486H188.974V73.9507H175.356V83.6486Z" fill="white"/>
<path d="M189.305 73.6213H203.583V83.9781H189.305V73.6213Z" fill="#23286B"/>
<path d="M203.912 84.3076H188.973V73.2917H203.912V84.3076ZM189.634 83.6486H203.251V73.9507H189.634V83.6486Z" fill="white"/>
<path d="M203.582 73.6213H217.86V83.9781H203.582V73.6213Z" fill="#23286B"/>
<path d="M218.189 84.3076H203.25V73.2917H218.189V84.3076ZM203.911 83.6486H217.528V73.9507H203.911V83.6486Z" fill="white"/>
<path d="M117.912 83.9781H132.19V94.3349H117.912V83.9781Z" fill="#4F84E8"/>
<path d="M132.52 94.6651H117.58V83.6493H132.52V94.6651ZM118.241 94.0061H131.858V84.3082H118.241V94.0061Z" fill="white"/>
<path d="M132.189 83.9781H146.468V94.3349H132.189V83.9781Z" fill="#4F84E8"/>
<path d="M146.801 94.6651H131.861V83.6493H146.801V94.6651ZM132.522 94.0061H146.14V84.3082H132.522V94.0061Z" fill="white"/>
<path d="M146.469 83.9781H160.747V94.3349H146.469V83.9781Z" fill="#4F84E8"/>
<path d="M161.076 94.6651H146.137V83.6493H161.076V94.6651ZM146.798 94.0061H160.415V84.3082H146.798V94.0061Z" fill="white"/>
<path d="M160.746 83.9781H175.024V94.3349H160.746V83.9781Z" fill="#4F84E8"/>
<path d="M175.355 94.6651H160.416V83.6493H175.355V94.6651ZM161.077 94.0061H174.694V84.3082H161.077V94.0061Z" fill="white"/>
<path d="M175.025 83.9781H189.304V94.3349H175.025V83.9781Z" fill="#4F84E8"/>
<path d="M189.635 94.6651H174.695V83.6493H189.635V94.6651ZM175.356 94.0061H188.974V84.3082H175.356V94.0061Z" fill="white"/>
<path d="M189.305 83.9781H203.583V94.3349H189.305V83.9781Z" fill="#23286B"/>
<path d="M203.912 94.6651H188.973V83.6493H203.912V94.6651ZM189.634 94.0061H203.251V84.3082H189.634V94.0061Z" fill="white"/>
<path d="M203.582 83.9781H217.86V94.3349H203.582V83.9781Z" fill="#23286B"/>
<path d="M218.189 94.6651H203.25V83.6493H218.189V94.6651ZM203.911 94.0061H217.528V84.3082H203.911V94.0061Z" fill="white"/>
<path d="M117.912 94.3356H132.19V104.692H117.912V94.3356Z" fill="#4F84E8"/>
<path d="M132.52 105.022H117.58V94.0061H132.52V105.022ZM118.241 104.363H131.858V94.6651H118.241V104.363Z" fill="white"/>
<path d="M132.189 94.3356H146.468V104.692H132.189V94.3356Z" fill="#4F84E8"/>
<path d="M146.801 105.022H131.861V94.0061H146.801V105.022ZM132.522 104.363H146.14V94.6651H132.522V104.363Z" fill="white"/>
<path d="M146.469 94.3356H160.747V104.692H146.469V94.3356Z" fill="#4F84E8"/>
<path d="M161.076 105.022H146.137V94.0061H161.076V105.022ZM146.798 104.363H160.415V94.6651H146.798V104.363Z" fill="white"/>
<path d="M160.746 94.3356H175.024V104.692H160.746V94.3356Z" fill="#4F84E8"/>
<path d="M175.355 105.022H160.416V94.0061H175.355V105.022ZM161.077 104.363H174.694V94.6651H161.077V104.363Z" fill="white"/>
<path d="M175.025 94.3356H189.304V104.692H175.025V94.3356Z" fill="#4F84E8"/>
<path d="M189.635 105.022H174.695V94.0061H189.635V105.022ZM175.356 104.363H188.974V94.6651H175.356V104.363Z" fill="white"/>
<path d="M189.305 94.3356H203.583V104.692H189.305V94.3356Z" fill="#23286B"/>
<path d="M203.912 105.022H188.973V94.0061H203.912V105.022ZM189.634 104.363H203.251V94.6651H189.634V104.363Z" fill="white"/>
<path d="M203.582 94.3356H217.86V104.692H203.582V94.3356Z" fill="#23286B"/>
<path d="M218.189 105.022H203.25V94.0061H218.189V105.022ZM203.911 104.363H217.528V94.6651H203.911V104.363Z" fill="white"/>
<path d="M117.912 104.692H132.19V115.049H117.912V104.692Z" fill="#4F84E8"/>
<path d="M132.52 115.379H117.58V104.363H132.52V115.379ZM118.241 114.72H131.858V105.022H118.241V114.72Z" fill="white"/>
<path d="M132.189 104.692H146.468V115.049H132.189V104.692Z" fill="#4F84E8"/>
<path d="M146.801 115.379H131.861V104.363H146.801V115.379ZM132.522 114.72H146.14V105.022H132.522V114.72Z" fill="white"/>
<path d="M146.469 104.692H160.747V115.049H146.469V104.692Z" fill="#4F84E8"/>
<path d="M161.076 115.379H146.137V104.363H161.076V115.379ZM146.798 114.72H160.415V105.022H146.798V114.72Z" fill="white"/>
<path d="M160.746 104.692H175.024V115.049H160.746V104.692Z" fill="#4F84E8"/>
<path d="M175.355 115.379H160.416V104.363H175.355V115.379ZM161.077 114.72H174.694V105.022H161.077V114.72Z" fill="white"/>
<path d="M175.025 104.692H189.304V115.049H175.025V104.692Z" fill="#4F84E8"/>
<path d="M189.635 115.379H174.695V104.363H189.635V115.379ZM175.356 114.72H188.974V105.022H175.356V114.72Z" fill="white"/>
<path d="M189.305 104.692H203.583V115.049H189.305V104.692Z" fill="#23286B"/>
<path d="M203.912 115.379H188.973V104.363H203.912V115.379ZM189.634 114.72H203.251V105.022H189.634V114.72Z" fill="white"/>
<path d="M203.582 104.692H217.86V115.049H203.582V104.692Z" fill="#23286B"/>
<path d="M218.189 115.379H203.25V104.363H218.189V115.379ZM203.911 114.72H217.528V105.022H203.911V114.72Z" fill="white"/>
<path d="M136.699 145.87H211.898V146.529H136.699V145.87Z" fill="#23286B"/>
<path d="M125.486 147.863C126.375 147.863 127.096 147.145 127.096 146.258C127.096 145.372 126.375 144.653 125.486 144.653C124.596 144.653 123.875 145.372 123.875 146.258C123.875 147.145 124.596 147.863 125.486 147.863Z" fill="#23286B"/>
<path d="M125.486 148.193C124.416 148.193 123.545 147.325 123.545 146.258C123.545 145.19 124.416 144.323 125.486 144.323C126.556 144.323 127.427 145.191 127.427 146.258C127.427 147.324 126.556 148.193 125.486 148.193ZM125.486 144.982C124.78 144.982 124.206 145.554 124.206 146.258C124.206 146.961 124.781 147.534 125.486 147.534C126.192 147.534 126.766 146.961 126.766 146.258C126.766 145.554 126.192 144.982 125.486 144.982ZM136.7 165.682H211.899V166.341H136.7V165.682Z" fill="#23286B"/>
<path d="M125.486 167.675C126.375 167.675 127.096 166.956 127.096 166.07C127.096 165.183 126.375 164.465 125.486 164.465C124.596 164.465 123.875 165.183 123.875 166.07C123.875 166.956 124.596 167.675 125.486 167.675Z" fill="#23286B"/>
<path d="M125.486 168.004C124.416 168.004 123.545 167.137 123.545 166.07C123.545 165.003 124.416 164.134 125.486 164.134C126.556 164.134 127.427 165.002 127.427 166.07C127.427 167.137 126.556 168.004 125.486 168.004ZM125.486 164.793C124.78 164.793 124.206 165.366 124.206 166.07C124.206 166.774 124.781 167.345 125.486 167.345C126.192 167.345 126.766 166.773 126.766 166.07C126.766 165.367 126.192 164.793 125.486 164.793ZM136.7 185.494H211.899V186.153H136.7V185.494Z" fill="#23286B"/>
<path d="M125.486 187.487C126.375 187.487 127.096 186.768 127.096 185.881C127.096 184.995 126.375 184.276 125.486 184.276C124.596 184.276 123.875 184.995 123.875 185.881C123.875 186.768 124.596 187.487 125.486 187.487Z" fill="#23286B"/>
<path d="M125.486 187.816C124.416 187.816 123.545 186.948 123.545 185.881C123.545 184.813 124.416 183.946 125.486 183.946C126.556 183.946 127.427 184.814 127.427 185.881C127.427 186.948 126.556 187.816 125.486 187.816ZM125.486 184.605C124.78 184.605 124.206 185.178 124.206 185.881C124.206 186.584 124.781 187.157 125.486 187.157C126.192 187.157 126.766 186.584 126.766 185.881C126.766 185.177 126.192 184.605 125.486 184.605ZM136.7 205.305H211.899V205.964H136.7V205.305Z" fill="#23286B"/>
<path d="M125.486 207.298C126.375 207.298 127.096 206.579 127.096 205.693C127.096 204.806 126.375 204.088 125.486 204.088C124.596 204.088 123.875 204.806 123.875 205.693C123.875 206.579 124.596 207.298 125.486 207.298Z" fill="#23286B"/>
<path d="M125.486 207.628C124.416 207.628 123.545 206.76 123.545 205.693C123.545 204.625 124.416 203.758 125.486 203.758C126.556 203.758 127.427 204.625 127.427 205.693C127.427 206.76 126.556 207.628 125.486 207.628ZM125.486 204.417C124.78 204.417 124.206 204.99 124.206 205.694C124.206 206.397 124.781 206.97 125.486 206.97C126.192 206.97 126.766 206.397 126.766 205.694C126.766 204.99 126.192 204.417 125.486 204.417ZM136.7 225.117H211.899V225.776H136.7V225.117Z" fill="#23286B"/>
<path d="M125.486 227.11C126.375 227.11 127.096 226.392 127.096 225.505C127.096 224.619 126.375 223.9 125.486 223.9C124.596 223.9 123.875 224.619 123.875 225.505C123.875 226.392 124.596 227.11 125.486 227.11Z" fill="#23286B"/>
<path d="M125.486 227.44C124.416 227.44 123.545 226.572 123.545 225.505C123.545 224.438 124.416 223.57 125.486 223.57C126.556 223.57 127.427 224.438 127.427 225.505C127.427 226.573 126.556 227.44 125.486 227.44ZM125.486 224.229C124.78 224.229 124.206 224.801 124.206 225.505C124.206 226.209 124.781 226.781 125.486 226.781C126.192 226.781 126.766 226.208 126.766 225.505C126.766 224.802 126.192 224.229 125.486 224.229Z" fill="#23286B"/>
<path d="M106.658 32.3355H126.062V32.9945H106.658V32.3355ZM138.171 32.3355H157.575V32.9945H138.171V32.3355ZM169.685 32.3355H189.089V32.9945H169.685V32.3355ZM201.199 32.3355H220.602V32.9945H201.199V32.3355Z" fill="#4F84E8"/>
<path d="M417.801 38.3379C420.945 38.3379 423.493 35.7981 423.493 32.665C423.493 29.5319 420.945 26.992 417.801 26.992C414.658 26.992 412.109 29.5319 412.109 32.665C412.109 35.7981 414.658 38.3379 417.801 38.3379Z" fill="white"/>
<path d="M435.566 27.6734H446.949V28.3324H435.566V27.6734ZM435.566 32.3355H446.949V32.9945H435.566V32.3355ZM435.566 36.9977H446.949V37.6566H435.566V36.9977Z" fill="white"/>
<path d="M318.308 149.666H255.875V58.4138H257.601L316 146.2L318.308 149.666Z" fill="#23286B"/>
<path d="M443.531 58.4138V149.666H318.309L316.001 146.2L257.602 58.4138H443.531Z" fill="#4F84E8"/>
<path d="M375.729 235.99H255.875V161.211H325.984L373.422 232.524L375.729 235.99Z" fill="#23286B"/>
<path d="M443.531 161.211V235.99H375.73L373.423 232.524L325.985 161.211H443.531ZM316.001 146.201H252.055V54.9483H255.294L289.416 106.242L301.317 124.126L316.001 146.201Z" fill="#4F84E8"/>
<path d="M439.709 54.9477V146.2H316.001L303.709 127.723L291.808 109.839L255.293 54.9477H439.709Z" fill="white"/>
<path d="M373.423 232.524H252.055V157.745H323.677L373.423 232.524Z" fill="#4F84E8"/>
<path d="M439.708 157.745V232.524H373.421L323.676 157.745H439.708Z" fill="white"/>
<path d="M263.523 92.5933H275.424V136.065H263.523V92.5933ZM301.32 127.723V136.065H289.419V109.839L301.32 127.723Z" fill="#23286B"/>
<path d="M301.315 80.7334V124.126L289.414 106.242V80.7334H301.315Z" fill="#4F84E8"/>
<path d="M301.315 124.126V127.724L289.414 109.84V106.242L301.315 124.126Z" fill="#23286B"/>
<path d="M314.549 70.934H326.443V136.065H314.549V70.934ZM339.931 73.6219H351.825V136.065H339.931V73.6219ZM363.99 99.5124H375.891V136.065H363.99V99.5124ZM388.049 85.8924H399.95V136.065H388.049V85.8924ZM412.109 109.871H424.009V136.065H412.109V109.871Z" fill="#4F84E8"/>
<path d="M326.479 195.135C326.479 208.735 315.417 219.76 301.771 219.76C293.315 219.76 285.851 215.529 281.395 209.072L301.771 195.135L284.39 177.626C288.859 173.224 294.994 170.509 301.771 170.509C315.417 170.509 326.479 181.534 326.479 195.135Z" fill="#23286B"/>
<path d="M301.772 195.134L281.395 209.071C278.568 204.971 277.057 200.11 277.064 195.134C277.064 188.288 279.868 182.094 284.39 177.626L301.772 195.134Z" fill="white"/>
<path d="M301.769 207.039C308.365 207.039 313.713 201.709 313.713 195.135C313.713 188.56 308.365 183.23 301.769 183.23C295.172 183.23 289.824 188.56 289.824 195.135C289.824 201.709 295.172 207.039 301.769 207.039Z" fill="#4F84E8"/>
<path d="M271.345 219.94L267.604 214.507L296.638 194.65L278.68 176.566L283.379 171.931L306.904 195.62L271.345 219.94Z" fill="#4F84E8"/>
<path d="M278.682 176.561L283.379 171.925L286.738 175.305L282.04 179.942L278.682 176.561ZM267.604 214.503L279.524 206.352L283.265 211.786L271.344 219.937L267.604 214.503Z" fill="#4F84E8"/>
<path d="M403.185 212.603C398.715 217.025 392.56 219.76 385.763 219.76C377.307 219.76 369.843 215.529 365.387 209.071L385.763 195.135L403.185 212.603Z" fill="#23286B"/>
<path d="M410.472 195.135C410.472 201.961 407.682 208.142 403.186 212.604L385.765 195.135L368.383 177.626C372.852 173.224 378.988 170.509 385.765 170.509C399.411 170.509 410.472 181.534 410.472 195.135Z" fill="#4F84E8"/>
<path d="M385.764 195.134L365.387 209.071C362.56 204.971 361.05 200.11 361.057 195.134C361.057 188.288 363.86 182.094 368.382 177.626L385.764 195.134Z" fill="#23286B"/>
<path d="M385.765 207.039C392.361 207.039 397.709 201.709 397.709 195.135C397.709 188.56 392.361 183.23 385.765 183.23C379.168 183.23 373.82 188.56 373.82 195.135C373.82 201.709 379.168 207.039 385.765 207.039Z" fill="white"/>
<path d="M363.273 214.514L359.531 209.081L380.631 194.65L362.674 176.566L367.373 171.931L390.898 195.62L363.273 214.514Z" fill="white"/>
<path d="M383.421 197.461L388.111 192.816L409.281 214.045L404.592 218.691L383.421 197.461ZM362.674 176.562L367.373 171.926L370.731 175.306L366.033 179.944L362.674 176.562ZM359.529 209.084L363.516 206.356L367.258 211.788L363.271 214.516L359.529 209.084Z" fill="white"/>
<path d="M400.838 214.922L405.529 210.279L409.277 214.042L404.587 218.685L400.838 214.922Z" fill="white"/>
<path d="M276.372 15.9439C278.408 15.9439 280.059 14.2988 280.059 12.2695C280.059 10.2402 278.408 8.59518 276.372 8.59518C274.336 8.59518 272.686 10.2402 272.686 12.2695C272.686 14.2988 274.336 15.9439 276.372 15.9439Z" fill="white"/>
<path d="M276.371 16.6029C273.974 16.6029 272.023 14.6589 272.023 12.2696C272.023 9.88017 273.974 7.93559 276.371 7.93559C278.768 7.93559 280.719 9.87951 280.719 12.2696C280.719 14.6596 278.768 16.6029 276.371 16.6029ZM276.371 9.2535C274.703 9.2535 273.346 10.6063 273.346 12.2696C273.346 13.9328 274.703 15.285 276.371 15.285C278.039 15.285 279.396 13.9321 279.396 12.2696C279.396 10.607 278.039 9.2535 276.371 9.2535ZM218.851 116.038H116.918V62.2753H218.851V116.038V116.038ZM118.901 114.062H216.867V64.2522H118.901V114.061V114.062Z" fill="#4F84E8"/>
<path d="M263.523 92.5933H275.424V116.382H263.523V92.5933Z" fill="white"/>
<path d="M289.418 80.732H301.319V99.5124H289.418V80.732ZM314.552 70.934H326.446V115.051H314.552V70.934ZM339.933 73.6219H351.828V110.978H339.933V73.6219ZM363.993 99.5124H375.894V106.181H363.993V99.5124ZM388.052 85.8923H399.953V104.04H388.052V85.8923ZM412.112 109.871H424.012V117.792H412.112V109.871Z" fill="#23286B"/>
<path d="M241.188 269.636H311.816V270.954H241.188V269.636Z" fill="#4F84E8"/>
</g>
<g clip-path="url(#clip2_2097_2496)">
<path d="M215.641 227.966L209.358 241.485L13.9648 268.898L19.2501 258.84L215.641 227.966Z" fill="#23286B"/>
<path d="M20.5846 286.259L195.83 269.765L193.962 250.026L10.7949 267.266L20.5846 286.259Z" fill="#23286B"/>
<path d="M10.793 267.266L31.8757 278.12L246.965 262.185L259.812 252.402L221.892 234.111L10.793 267.266Z" fill="white"/>
<path d="M215.639 227.966L221.424 194.962L204.063 195.592L23.0006 252.83L10.793 267.266L15.979 266.825L215.639 227.966Z" fill="white"/>
</g>
<g clip-path="url(#clip3_2097_2496)">
<path d="M590.574 296.343H20.4629V311.691C20.4629 311.691 302.568 309.667 396.577 311.691C500.834 313.936 564.852 315.247 590.574 327.277V296.343Z" fill="#4F84E8"/>
<path d="M0.867188 285.598H610.169V298.35H0.867188V285.598Z" fill="white"/>
</g>
<defs>
<clipPath id="clip0_2097_2496">
<rect width="207.958" height="199.796" fill="white" transform="translate(431.352 86.4627)"/>
</clipPath>
<clipPath id="clip1_2097_2496">
<rect width="504.661" height="285.802" fill="white" transform="translate(24.043 0.584305)"/>
</clipPath>
<clipPath id="clip2_2097_2496">
<rect width="249.019" height="91.2977" fill="white" transform="translate(10.7969 194.961)"/>
</clipPath>
<clipPath id="clip3_2097_2496">
<rect width="609.302" height="41.6794" fill="white" transform="translate(0.867188 285.597)"/>
</clipPath>
</defs>
</svg>
