<svg width="60" height="60" viewBox="0 0 60 60" fill="none" xmlns="http://www.w3.org/2000/svg">
<g clip-path="url(#clip0_1866_70361)">
<path d="M36.0225 39.7294L48.8351 26.9169C53.5525 22.1994 53.5525 14.5509 48.8351 9.8335C44.1176 5.11605 36.4692 5.11605 31.7517 9.8335L18.9392 22.646L36.0225 39.7294Z" fill="url(#paint0_linear_1866_70361)"/>
<path d="M30.8021 27.8659C35.5196 32.5833 37.8571 37.8949 36.0225 39.7294C34.188 41.564 28.8761 39.2269 24.1586 34.5094C19.4412 29.792 17.1046 24.4806 18.9392 22.646C20.7737 20.8115 26.0847 23.1485 30.8021 27.8659Z" fill="url(#paint1_linear_1866_70361)"/>
<g filter="url(#filter0_b_1866_70361)">
<path d="M37.625 40.9221L52.8517 25.6955C58.4579 20.0892 58.4579 10.9997 52.8517 5.39337C47.2454 -0.212916 38.1558 -0.212919 32.5495 5.39337L17.3229 20.62L37.625 40.9221Z" fill="url(#paint2_radial_1866_70361)" fill-opacity="0.5"/>
<path d="M37.625 40.9221L52.8517 25.6955C58.4579 20.0892 58.4579 10.9997 52.8517 5.39337C47.2454 -0.212916 38.1558 -0.212919 32.5495 5.39337L17.3229 20.62L37.625 40.9221Z" fill="url(#paint3_linear_1866_70361)"/>
<path d="M31.421 26.8233C37.0273 32.4296 39.8053 38.7419 37.625 40.9221C35.4448 43.1024 29.132 40.3249 23.5258 34.7186C17.9195 29.1123 15.1427 22.8002 17.3229 20.62C19.5031 18.4398 25.8148 21.2171 31.421 26.8233Z" fill="url(#paint4_radial_1866_70361)" fill-opacity="0.5"/>
<path d="M31.421 26.8233C37.0273 32.4296 39.8053 38.7419 37.625 40.9221C35.4448 43.1024 29.132 40.3249 23.5258 34.7186C17.9195 29.1123 15.1427 22.8002 17.3229 20.62C19.5031 18.4398 25.8148 21.2171 31.421 26.8233Z" fill="url(#paint5_linear_1866_70361)"/>
<path d="M37.2602 40.9108C36.7876 41.276 36.1287 41.446 35.3011 41.4112C34.3569 41.3716 33.2199 41.0655 31.9609 40.5115C29.4443 39.4042 26.4895 37.3288 23.7025 34.5419C20.9156 31.7549 18.8403 28.8003 17.7332 26.2839C17.1793 25.0249 16.8733 23.8879 16.8337 22.9438C16.799 22.1162 16.969 21.4574 17.3342 20.9849L37.2602 40.9108ZM19.6676 19.6313C19.2865 19.6153 18.9253 19.6388 18.5907 19.7058L32.7263 5.57014C38.2349 0.06149 47.1662 0.0614914 52.6749 5.57015C58.1835 11.0788 58.1835 20.0101 52.6749 25.5187L38.5392 39.6544C38.6062 39.3197 38.6296 38.9585 38.6136 38.5773C38.5704 37.5495 38.2405 36.3492 37.6718 35.0568C36.5337 32.4705 34.4172 29.4659 31.5978 26.6466C28.7785 23.8272 25.774 21.7108 23.1879 20.5729C21.8956 20.0043 20.6953 19.6744 19.6676 19.6313ZM38.1141 38.5983C38.1488 39.4259 37.9789 40.0847 37.6137 40.5573L17.6878 20.6313C18.1603 20.2661 18.8191 20.0961 19.6466 20.1309C20.5907 20.1705 21.7276 20.4766 22.9865 21.0306C25.5028 22.1378 28.4573 24.2132 31.2443 27.0001C34.0312 29.787 36.1068 32.7417 37.2142 35.2582C37.7682 36.5172 38.0744 37.6542 38.1141 38.5983Z" stroke="url(#paint6_radial_1866_70361)" stroke-width="0.5"/>
<path d="M37.2602 40.9108C36.7876 41.276 36.1287 41.446 35.3011 41.4112C34.3569 41.3716 33.2199 41.0655 31.9609 40.5115C29.4443 39.4042 26.4895 37.3288 23.7025 34.5419C20.9156 31.7549 18.8403 28.8003 17.7332 26.2839C17.1793 25.0249 16.8733 23.8879 16.8337 22.9438C16.799 22.1162 16.969 21.4574 17.3342 20.9849L37.2602 40.9108ZM19.6676 19.6313C19.2865 19.6153 18.9253 19.6388 18.5907 19.7058L32.7263 5.57014C38.2349 0.06149 47.1662 0.0614914 52.6749 5.57015C58.1835 11.0788 58.1835 20.0101 52.6749 25.5187L38.5392 39.6544C38.6062 39.3197 38.6296 38.9585 38.6136 38.5773C38.5704 37.5495 38.2405 36.3492 37.6718 35.0568C36.5337 32.4705 34.4172 29.4659 31.5978 26.6466C28.7785 23.8272 25.774 21.7108 23.1879 20.5729C21.8956 20.0043 20.6953 19.6744 19.6676 19.6313ZM38.1141 38.5983C38.1488 39.4259 37.9789 40.0847 37.6137 40.5573L17.6878 20.6313C18.1603 20.2661 18.8191 20.0961 19.6466 20.1309C20.5907 20.1705 21.7276 20.4766 22.9865 21.0306C25.5028 22.1378 28.4573 24.2132 31.2443 27.0001C34.0312 29.787 36.1068 32.7417 37.2142 35.2582C37.7682 36.5172 38.0744 37.6542 38.1141 38.5983Z" stroke="url(#paint7_radial_1866_70361)" stroke-width="0.5"/>
<path d="M37.2602 40.9108C36.7876 41.276 36.1287 41.446 35.3011 41.4112C34.3569 41.3716 33.2199 41.0655 31.9609 40.5115C29.4443 39.4042 26.4895 37.3288 23.7025 34.5419C20.9156 31.7549 18.8403 28.8003 17.7332 26.2839C17.1793 25.0249 16.8733 23.8879 16.8337 22.9438C16.799 22.1162 16.969 21.4574 17.3342 20.9849L37.2602 40.9108ZM19.6676 19.6313C19.2865 19.6153 18.9253 19.6388 18.5907 19.7058L32.7263 5.57014C38.2349 0.06149 47.1662 0.0614914 52.6749 5.57015C58.1835 11.0788 58.1835 20.0101 52.6749 25.5187L38.5392 39.6544C38.6062 39.3197 38.6296 38.9585 38.6136 38.5773C38.5704 37.5495 38.2405 36.3492 37.6718 35.0568C36.5337 32.4705 34.4172 29.4659 31.5978 26.6466C28.7785 23.8272 25.774 21.7108 23.1879 20.5729C21.8956 20.0043 20.6953 19.6744 19.6676 19.6313ZM38.1141 38.5983C38.1488 39.4259 37.9789 40.0847 37.6137 40.5573L17.6878 20.6313C18.1603 20.2661 18.8191 20.0961 19.6466 20.1309C20.5907 20.1705 21.7276 20.4766 22.9865 21.0306C25.5028 22.1378 28.4573 24.2132 31.2443 27.0001C34.0312 29.787 36.1068 32.7417 37.2142 35.2582C37.7682 36.5172 38.0744 37.6542 38.1141 38.5983Z" stroke="url(#paint8_radial_1866_70361)" stroke-width="0.5"/>
</g>
<ellipse cx="27.4623" cy="30.6352" rx="5.07711" ry="13.0554" transform="rotate(-45 27.4623 30.6352)" fill="url(#paint9_linear_1866_70361)"/>
<path d="M21.9265 28.4502C21.9265 29.6653 20.9487 30.6502 19.7426 30.6502C18.5366 30.6502 17.5588 29.6653 17.5588 28.4502C17.5588 27.2352 18.5366 26.2502 19.7426 26.2502C20.9487 26.2502 21.9265 27.2352 21.9265 28.4502Z" fill="url(#paint10_linear_1866_70361)"/>
<path d="M25.5662 54.8502C25.5662 56.0653 24.5884 57.0502 23.3824 57.0502C22.1763 57.0502 21.1985 56.0653 21.1985 54.8502C21.1985 53.6352 22.1763 52.6502 23.3824 52.6502C24.5884 52.6502 25.5662 53.6352 25.5662 54.8502Z" fill="url(#paint11_linear_1866_70361)"/>
<path d="M16.1029 39.4502C16.1029 40.6653 15.1252 41.6502 13.9191 41.6502C12.713 41.6502 11.7353 40.6653 11.7353 39.4502C11.7353 38.2352 12.713 37.2502 13.9191 37.2502C15.1252 37.2502 16.1029 38.2352 16.1029 39.4502Z" fill="url(#paint12_linear_1866_70361)"/>
<path d="M7.36765 46.0502C7.36765 47.2653 6.38992 48.2502 5.18382 48.2502C3.97773 48.2502 3 47.2653 3 46.0502C3 44.8352 3.97773 43.8502 5.18382 43.8502C6.38992 43.8502 7.36765 44.8352 7.36765 46.0502Z" fill="url(#paint13_linear_1866_70361)"/>
<path d="M27.75 41.6502C27.75 44.0803 25.7945 46.0502 23.3824 46.0502C20.9702 46.0502 19.0147 44.0803 19.0147 41.6502C19.0147 39.2202 20.9702 37.2502 23.3824 37.2502C25.7945 37.2502 27.75 39.2202 27.75 41.6502Z" fill="url(#paint14_linear_1866_70361)"/>
<path d="M11.7353 54.8502C11.7353 57.2803 9.77983 59.2502 7.36765 59.2502C4.95546 59.2502 3 57.2803 3 54.8502C3 52.4202 4.95546 50.4502 7.36765 50.4502C9.77983 50.4502 11.7353 52.4202 11.7353 54.8502Z" fill="url(#paint15_linear_1866_70361)"/>
</g>
<defs>
<filter id="filter0_b_1866_70361" x="12.5781" y="-2.81128" width="48.4766" height="48.4768" filterUnits="userSpaceOnUse" color-interpolation-filters="sRGB">
<feFlood flood-opacity="0" result="BackgroundImageFix"/>
<feGaussianBlur in="BackgroundImageFix" stdDeviation="2"/>
<feComposite in2="SourceAlpha" operator="in" result="effect1_backgroundBlur_1866_70361"/>
<feBlend mode="normal" in="SourceGraphic" in2="effect1_backgroundBlur_1866_70361" result="shape"/>
</filter>
<linearGradient id="paint0_linear_1866_70361" x1="40.2934" y1="1.29181" x2="51.5469" y2="37.1342" gradientUnits="userSpaceOnUse">
<stop stop-color="#5EE9B6"/>
<stop offset="1" stop-color="#3EE2A6"/>
</linearGradient>
<linearGradient id="paint1_linear_1866_70361" x1="40.2934" y1="1.29181" x2="51.5469" y2="37.1342" gradientUnits="userSpaceOnUse">
<stop stop-color="#5EE9B6"/>
<stop offset="1" stop-color="#3EE2A6"/>
</linearGradient>
<radialGradient id="paint2_radial_1866_70361" cx="0" cy="0" r="1" gradientUnits="userSpaceOnUse" gradientTransform="translate(38.1889 20.0562) rotate(45) scale(14.3558 20.7363)">
<stop stop-color="#55DCAD" stop-opacity="0.29"/>
<stop offset="0.713542" stop-color="#57DFAF" stop-opacity="0"/>
<stop offset="1" stop-color="#55DCAD" stop-opacity="0.65"/>
</radialGradient>
<linearGradient id="paint3_linear_1866_70361" x1="28.0378" y1="9.90508" x2="48.3399" y2="30.2072" gradientUnits="userSpaceOnUse">
<stop stop-color="#EAFFF7" stop-opacity="0.4"/>
<stop offset="1" stop-color="white" stop-opacity="0"/>
</linearGradient>
<radialGradient id="paint4_radial_1866_70361" cx="0" cy="0" r="1" gradientUnits="userSpaceOnUse" gradientTransform="translate(38.1889 20.0562) rotate(45) scale(14.3558 20.7363)">
<stop stop-color="#55DCAD" stop-opacity="0.29"/>
<stop offset="0.713542" stop-color="#57DFAF" stop-opacity="0"/>
<stop offset="1" stop-color="#55DCAD" stop-opacity="0.65"/>
</radialGradient>
<linearGradient id="paint5_linear_1866_70361" x1="28.0378" y1="9.90508" x2="48.3399" y2="30.2072" gradientUnits="userSpaceOnUse">
<stop stop-color="#EAFFF7" stop-opacity="0.4"/>
<stop offset="1" stop-color="white" stop-opacity="0"/>
</linearGradient>
<radialGradient id="paint6_radial_1866_70361" cx="0" cy="0" r="1" gradientUnits="userSpaceOnUse" gradientTransform="translate(38.3993 31.3901) rotate(-85.5083) scale(22.1009 12.3019)">
<stop stop-color="#C4F0E0"/>
<stop offset="1" stop-color="#4AE5AC" stop-opacity="0"/>
</radialGradient>
<radialGradient id="paint7_radial_1866_70361" cx="0" cy="0" r="1" gradientUnits="userSpaceOnUse" gradientTransform="translate(41.0876 8.79772) rotate(95.8845) scale(9.81203 14.3746)">
<stop stop-color="white"/>
<stop offset="1" stop-color="white" stop-opacity="0"/>
</radialGradient>
<radialGradient id="paint8_radial_1866_70361" cx="0" cy="0" r="1" gradientUnits="userSpaceOnUse" gradientTransform="translate(18.5039 30.5005) rotate(-32.1948) scale(28.1957 23.9401)">
<stop stop-color="white"/>
<stop offset="1" stop-color="white" stop-opacity="0"/>
</radialGradient>
<linearGradient id="paint9_linear_1866_70361" x1="32.5394" y1="17.5797" x2="13.8819" y2="27.2007" gradientUnits="userSpaceOnUse">
<stop stop-color="#3A2672"/>
<stop offset="1" stop-color="#131437"/>
</linearGradient>
<linearGradient id="paint10_linear_1866_70361" x1="27.75" y1="26.2502" x2="-1.19312" y2="55.0339" gradientUnits="userSpaceOnUse">
<stop stop-color="#5EE9B6"/>
<stop offset="1" stop-color="#3EE2A6"/>
</linearGradient>
<linearGradient id="paint11_linear_1866_70361" x1="27.75" y1="26.2502" x2="-1.19312" y2="55.0339" gradientUnits="userSpaceOnUse">
<stop stop-color="#5EE9B6"/>
<stop offset="1" stop-color="#3EE2A6"/>
</linearGradient>
<linearGradient id="paint12_linear_1866_70361" x1="27.75" y1="26.2502" x2="-1.19312" y2="55.0339" gradientUnits="userSpaceOnUse">
<stop stop-color="#5EE9B6"/>
<stop offset="1" stop-color="#3EE2A6"/>
</linearGradient>
<linearGradient id="paint13_linear_1866_70361" x1="27.75" y1="26.2502" x2="-1.19312" y2="55.0339" gradientUnits="userSpaceOnUse">
<stop stop-color="#5EE9B6"/>
<stop offset="1" stop-color="#3EE2A6"/>
</linearGradient>
<linearGradient id="paint14_linear_1866_70361" x1="27.75" y1="26.2502" x2="-1.19312" y2="55.0339" gradientUnits="userSpaceOnUse">
<stop stop-color="#5EE9B6"/>
<stop offset="1" stop-color="#3EE2A6"/>
</linearGradient>
<linearGradient id="paint15_linear_1866_70361" x1="27.75" y1="26.2502" x2="-1.19312" y2="55.0339" gradientUnits="userSpaceOnUse">
<stop stop-color="#5EE9B6"/>
<stop offset="1" stop-color="#3EE2A6"/>
</linearGradient>
<clipPath id="clip0_1866_70361">
<rect width="60" height="60" fill="white"/>
</clipPath>
</defs>
</svg>
