<svg width="60" height="60" viewBox="0 0 60 60" fill="none" xmlns="http://www.w3.org/2000/svg">
<g clip-path="url(#clip0_1866_70355)">
<path d="M38.3261 38.8744C23.5909 53.6096 7.79671 61.7058 3.0487 56.9578C-1.6993 52.2098 6.39691 36.4156 21.1321 21.6804C35.8673 6.94523 51.6615 -1.15098 56.4095 3.59702C61.1575 8.34502 53.0613 24.1393 38.3261 38.8744Z" fill="url(#paint0_linear_1866_70355)"/>
<g filter="url(#filter0_b_1866_70355)">
<path d="M38.3276 22.1255C53.0628 36.8607 61.159 52.655 56.411 57.403C51.663 62.151 35.8687 54.0548 21.1335 39.3196C6.39835 24.5844 -1.69786 8.79014 3.05015 4.04214C7.79815 -0.705863 23.5924 7.39035 38.3276 22.1255Z" fill="url(#paint1_radial_1866_70355)" fill-opacity="0.4"/>
<path d="M38.3276 22.1255C53.0628 36.8607 61.159 52.655 56.411 57.403C51.663 62.151 35.8687 54.0548 21.1335 39.3196C6.39835 24.5844 -1.69786 8.79014 3.05015 4.04214C7.79815 -0.705863 23.5924 7.39035 38.3276 22.1255Z" fill="url(#paint2_linear_1866_70355)"/>
</g>
<g filter="url(#filter1_b_1866_70355)">
<path fill-rule="evenodd" clip-rule="evenodd" d="M54.2091 43.7485C50.9677 37.4251 45.2969 29.836 37.957 22.4961C30.6171 15.1562 23.028 9.4854 16.7046 6.24399C13.5402 4.62188 10.7199 3.62232 8.42296 3.3118C6.11599 2.99992 4.44 3.39341 3.42071 4.4127C2.40141 5.432 2.00792 7.10798 2.3198 9.41496C2.63033 11.7119 3.62988 14.5322 5.252 17.6966C8.4934 24.02 14.1642 31.6091 21.5041 38.949C28.844 46.2889 36.4331 51.9597 42.7565 55.2011C45.921 56.8232 48.7412 57.8228 51.0381 58.1333C53.3451 58.4452 55.0211 58.0517 56.0404 57.0324C57.0597 56.0131 57.4532 54.3371 57.1413 52.0301C56.8308 49.7332 55.8312 46.9129 54.2091 43.7485ZM56.411 57.403C61.159 52.655 53.0628 36.8607 38.3276 22.1255C23.5924 7.39035 7.79815 -0.705863 3.05015 4.04214C-1.69786 8.79014 6.39835 24.5844 21.1335 39.3196C35.8687 54.0548 51.663 62.151 56.411 57.403Z" fill="url(#paint3_radial_1866_70355)"/>
<path fill-rule="evenodd" clip-rule="evenodd" d="M54.2091 43.7485C50.9677 37.4251 45.2969 29.836 37.957 22.4961C30.6171 15.1562 23.028 9.4854 16.7046 6.24399C13.5402 4.62188 10.7199 3.62232 8.42296 3.3118C6.11599 2.99992 4.44 3.39341 3.42071 4.4127C2.40141 5.432 2.00792 7.10798 2.3198 9.41496C2.63033 11.7119 3.62988 14.5322 5.252 17.6966C8.4934 24.02 14.1642 31.6091 21.5041 38.949C28.844 46.2889 36.4331 51.9597 42.7565 55.2011C45.921 56.8232 48.7412 57.8228 51.0381 58.1333C53.3451 58.4452 55.0211 58.0517 56.0404 57.0324C57.0597 56.0131 57.4532 54.3371 57.1413 52.0301C56.8308 49.7332 55.8312 46.9129 54.2091 43.7485ZM56.411 57.403C61.159 52.655 53.0628 36.8607 38.3276 22.1255C23.5924 7.39035 7.79815 -0.705863 3.05015 4.04214C-1.69786 8.79014 6.39835 24.5844 21.1335 39.3196C35.8687 54.0548 51.663 62.151 56.411 57.403Z" fill="url(#paint4_radial_1866_70355)"/>
<path fill-rule="evenodd" clip-rule="evenodd" d="M54.2091 43.7485C50.9677 37.4251 45.2969 29.836 37.957 22.4961C30.6171 15.1562 23.028 9.4854 16.7046 6.24399C13.5402 4.62188 10.7199 3.62232 8.42296 3.3118C6.11599 2.99992 4.44 3.39341 3.42071 4.4127C2.40141 5.432 2.00792 7.10798 2.3198 9.41496C2.63033 11.7119 3.62988 14.5322 5.252 17.6966C8.4934 24.02 14.1642 31.6091 21.5041 38.949C28.844 46.2889 36.4331 51.9597 42.7565 55.2011C45.921 56.8232 48.7412 57.8228 51.0381 58.1333C53.3451 58.4452 55.0211 58.0517 56.0404 57.0324C57.0597 56.0131 57.4532 54.3371 57.1413 52.0301C56.8308 49.7332 55.8312 46.9129 54.2091 43.7485ZM56.411 57.403C61.159 52.655 53.0628 36.8607 38.3276 22.1255C23.5924 7.39035 7.79815 -0.705863 3.05015 4.04214C-1.69786 8.79014 6.39835 24.5844 21.1335 39.3196C35.8687 54.0548 51.663 62.151 56.411 57.403Z" fill="url(#paint5_radial_1866_70355)"/>
</g>
<circle cx="30.2247" cy="30.7684" r="7.34966" fill="url(#paint6_linear_1866_70355)"/>
</g>
<defs>
<filter id="filter0_b_1866_70355" x="-8.30469" y="-7.31641" width="76.0703" height="76.0779" filterUnits="userSpaceOnUse" color-interpolation-filters="sRGB">
<feFlood flood-opacity="0" result="BackgroundImageFix"/>
<feGaussianBlur in="BackgroundImageFix" stdDeviation="5"/>
<feComposite in2="SourceAlpha" operator="in" result="effect1_backgroundBlur_1866_70355"/>
<feBlend mode="normal" in="SourceGraphic" in2="effect1_backgroundBlur_1866_70355" result="shape"/>
</filter>
<filter id="filter1_b_1866_70355" x="-8.30469" y="-7.31641" width="76.0703" height="76.0779" filterUnits="userSpaceOnUse" color-interpolation-filters="sRGB">
<feFlood flood-opacity="0" result="BackgroundImageFix"/>
<feGaussianBlur in="BackgroundImageFix" stdDeviation="5"/>
<feComposite in2="SourceAlpha" operator="in" result="effect1_backgroundBlur_1866_70355"/>
<feBlend mode="normal" in="SourceGraphic" in2="effect1_backgroundBlur_1866_70355" result="shape"/>
</filter>
<linearGradient id="paint0_linear_1866_70355" x1="65.0065" y1="12.194" x2="16.7375" y2="-7.17554" gradientUnits="userSpaceOnUse">
<stop stop-color="#5EE9B6"/>
<stop offset="1" stop-color="#3EE2A6"/>
</linearGradient>
<radialGradient id="paint1_radial_1866_70355" cx="0" cy="0" r="1" gradientUnits="userSpaceOnUse" gradientTransform="translate(29.7306 30.7225) rotate(45) scale(37.7318 12.158)">
<stop stop-color="#55DCAD"/>
<stop offset="0.713542" stop-color="#57DFAF" stop-opacity="0"/>
<stop offset="1" stop-color="#55DCAD"/>
</radialGradient>
<linearGradient id="paint2_linear_1866_70355" x1="3.05015" y1="4.04214" x2="56.411" y2="57.403" gradientUnits="userSpaceOnUse">
<stop stop-color="#EAFFF7" stop-opacity="0.4"/>
<stop offset="1" stop-color="white" stop-opacity="0"/>
</linearGradient>
<radialGradient id="paint3_radial_1866_70355" cx="0" cy="0" r="1" gradientUnits="userSpaceOnUse" gradientTransform="translate(20.2382 37.5839) rotate(-25.56) scale(13.3608 23.7873)">
<stop stop-color="#C4F0E0"/>
<stop offset="1" stop-color="#4AE5AC" stop-opacity="0"/>
</radialGradient>
<radialGradient id="paint4_radial_1866_70355" cx="0" cy="0" r="1" gradientUnits="userSpaceOnUse" gradientTransform="translate(2.94442 6.66476) rotate(39.8056) scale(36.8368 17.0765)">
<stop stop-color="white"/>
<stop offset="1" stop-color="white" stop-opacity="0"/>
</radialGradient>
<radialGradient id="paint5_radial_1866_70355" cx="0" cy="0" r="1" gradientUnits="userSpaceOnUse" gradientTransform="translate(48.537 55.4017) rotate(-121.122) scale(32.4447 12.8958)">
<stop stop-color="white"/>
<stop offset="1" stop-color="white" stop-opacity="0"/>
</radialGradient>
<linearGradient id="paint6_linear_1866_70355" x1="37.5743" y1="23.4187" x2="25.1786" y2="39.8553" gradientUnits="userSpaceOnUse">
<stop stop-color="#3A2672"/>
<stop offset="1" stop-color="#131437"/>
</linearGradient>
<clipPath id="clip0_1866_70355">
<rect width="60" height="60" fill="white"/>
</clipPath>
</defs>
</svg>
